<svg version="1.1" xmlns="http://www.w3.org/2000/svg" xmlns:xlink="http://www.w3.org/1999/xlink" width="1104" height="119"><defs><clipPath id="zTyNTTCOeuHf"><path fill="none" stroke="none" d=" M 0 0 L 1104 0 L 1104 119 L 0 119 L 0 0 Z"/></clipPath></defs><g transform="scale(1,1)" clip-path="url(#zTyNTTCOeuHf)"><g transform="translate(-70,-258)"><path fill="#000000" stroke="none" paint-order="stroke fill markers" fill-rule="evenodd" d=" M 450.5 115 L 471.5 115 C 472.880711874577 115 474 116.11928812542301 474 117.5 L 474 138.5 C 474 139.88071187457697 472.880711874577 141 471.5 141 L 450.5 141 C 449.119288125423 141 448 139.88071187457697 448 138.5 L 448 117.5 C 448 116.11928812542301 449.119288125423 115 450.5 115 Z"/><path fill="none" stroke="rgb(0,0,0)" paint-order="fill stroke markers" d=" M 450.5 115 L 471.5 115 C 472.880711874577 115 474 116.11928812542301 474 117.5 L 474 138.5 C 474 139.88071187457697 472.880711874577 141 471.5 141 L 450.5 141 C 449.119288125423 141 448 139.88071187457697 448 138.5 L 448 117.5 C 448 116.11928812542301 449.119288125423 115 450.5 115 Z" stroke-opacity="1" stroke-linecap="round" stroke-linejoin="round" stroke-miterlimit="10"/><path fill="none" stroke="rgb(68,68,68)" paint-order="fill stroke markers" d=" M 453 130 L 458 135 Z" stroke-opacity="1" stroke-linecap="round" stroke-linejoin="round" stroke-miterlimit="10" stroke-width="4"/><path fill="none" stroke="rgb(68,68,68)" paint-order="fill stroke markers" d=" M 458 135 L 468 121 Z" stroke-opacity="1" stroke-linecap="round" stroke-linejoin="round" stroke-miterlimit="10" stroke-width="4"/><text fill="rgb(0,0,0)" stroke="none" font-family="geogebra-sans-serif, sans-serif" font-size="32px" font-style="normal" font-weight="normal" text-decoration="normal" x="483" y="140" text-anchor="start" dominant-baseline="alphabetic" fill-opacity="1">Serif</text><g transform="scale(35,35)"><g transform="translate(2.2857142857142856,9.083650857142857)"><path fill="rgb(0,0,0)" stroke="none" paint-order="stroke fill markers" d=" M 0.763 -0.606 L 0.628 -0.066 L 0.625 -0.049 Q 0.625 -0.032 0.672 -0.031 L 0.673 -0.031 L 0.6900000000000001 -0.031 Q 0.716 -0.031 0.718 -0.02 Q 0.718 0 0.6980000000000001 0 L 0.634 -0.002 L 0.633 -0.002 L 0.5710000000000001 -0.003 L 0.5690000000000001 -0.003 L 0.443 0 L 0.442 0 Q 0.428 0 0.428 -0.011 Q 0.428 -0.029 0.442 -0.031 L 0.442 -0.031 L 0.442 -0.031 L 0.452 -0.031 Q 0.515 -0.031 0.529 -0.041 L 0.53 -0.042 Q 0.538 -0.049 0.543 -0.064 L 0.612 -0.34 L 0.307 -0.34 L 0.23900000000000002 -0.066 L 0.23600000000000002 -0.049 Q 0.23600000000000002 -0.032 0.28200000000000003 -0.031 L 0.28200000000000003 -0.031 L 0.28200000000000003 -0.031 L 0.301 -0.031 Q 0.327 -0.031 0.329 -0.02 Q 0.329 0 0.309 0 L 0.245 -0.002 L 0.244 -0.002 L 0.182 -0.003 L 0.18 -0.003 L 0.054 0 L 0.053 0 Q 0.039 0 0.039 -0.011 Q 0.039 -0.029 0.054 -0.031 L 0.066 -0.031 Q 0.131 -0.031 0.14400000000000002 -0.045 Q 0.15 -0.052000000000000005 0.156 -0.073 Q 0.156 -0.074 0.157 -0.078 L 0.291 -0.615 Q 0.295 -0.631 0.295 -0.634 Q 0.295 -0.646 0.279 -0.649 L 0.278 -0.649 L 0.277 -0.649 Q 0.274 -0.649 0.268 -0.65 Q 0.251 -0.652 0.23 -0.652 Q 0.20400000000000001 -0.652 0.202 -0.663 Q 0.202 -0.683 0.221 -0.683 L 0.34900000000000003 -0.68 L 0.35000000000000003 -0.68 L 0.47700000000000004 -0.683 L 0.47800000000000004 -0.683 Q 0.492 -0.683 0.492 -0.672 Q 0.492 -0.655 0.47800000000000004 -0.653 L 0.47700000000000004 -0.653 L 0.47700000000000004 -0.653 L 0.47700000000000004 -0.653 L 0.47600000000000003 -0.652 L 0.458 -0.652 Q 0.397 -0.652 0.385 -0.635 L 0.384 -0.635 L 0.384 -0.634 Q 0.379 -0.627 0.374 -0.606 L 0.315 -0.371 L 0.62 -0.371 L 0.68 -0.615 Q 0.684 -0.632 0.684 -0.634 Q 0.684 -0.646 0.668 -0.649 Q 0.665 -0.649 0.657 -0.65 Q 0.64 -0.652 0.619 -0.652 Q 0.593 -0.652 0.591 -0.663 Q 0.591 -0.683 0.61 -0.683 L 0.738 -0.68 L 0.739 -0.68 L 0.866 -0.683 L 0.867 -0.683 Q 0.881 -0.683 0.881 -0.672 Q 0.881 -0.655 0.867 -0.653 L 0.866 -0.653 Q 0.861 -0.652 0.847 -0.652 Q 0.786 -0.652 0.774 -0.636 Q 0.769 -0.629 0.763 -0.606 Z"/></g><g transform="translate(3.1977142857142855,9.083650857142857)"><path fill="rgb(0,0,0)" stroke="none" paint-order="stroke fill markers" d=" M 0.331 0.24 L 0.331 0.24 Q 0.331 0.25 0.321 0.25 Q 0.309 0.25 0.268 0.209 Q 0.20600000000000002 0.147 0.165 0.062 Q 0.099 -0.074 0.099 -0.25 Q 0.099 -0.419 0.162 -0.555 Q 0.214 -0.666 0.294 -0.733 Q 0.315 -0.75 0.321 -0.75 Q 0.331 -0.75 0.331 -0.74 Q 0.331 -0.735 0.318 -0.723 Q 0.157 -0.559 0.157 -0.25 Q 0.157 0.058 0.314 0.218 Q 0.331 0.23500000000000001 0.331 0.24 Z"/></g><g transform="translate(3.5867142857142857,9.083650857142857)"><path fill="rgb(0,0,0)" stroke="none" paint-order="stroke fill markers" d=" M 0.20600000000000002 -0.4 L 0.132 -0.105 Q 0.126 -0.08 0.126 -0.057 Q 0.126 -0.011 0.157 -0.011 Q 0.223 -0.011 0.273 -0.108 L 0.28700000000000003 -0.139 Q 0.293 -0.152 0.302 -0.153 Q 0.314 -0.153 0.314 -0.14300000000000002 Q 0.314 -0.13 0.28800000000000003 -0.08600000000000001 Q 0.23 0.011 0.155 0.011 Q 0.097 0.011 0.073 -0.037 Q 0.063 -0.057 0.063 -0.081 Q 0.063 -0.1 0.124 -0.34 L 0.139 -0.4 L 0.051000000000000004 -0.4 Q 0.026000000000000002 -0.4 0.024 -0.40800000000000003 L 0.023 -0.40800000000000003 L 0.023 -0.41200000000000003 Q 0.023 -0.429 0.039 -0.431 L 0.053 -0.431 L 0.147 -0.431 L 0.186 -0.59 Q 0.195 -0.625 0.226 -0.626 Q 0.252 -0.626 0.255 -0.599 Q 0.255 -0.593 0.214 -0.431 L 0.302 -0.431 Q 0.328 -0.431 0.33 -0.42 Q 0.33 -0.402 0.314 -0.4 L 0.313 -0.4 L 0.3 -0.4 L 0.20600000000000002 -0.4 Z"/></g><g transform="translate(3.9477142857142855,9.083650857142857)"><path fill="rgb(0,0,0)" stroke="none" paint-order="stroke fill markers" d=" M 0.289 -0.25 L 0.289 -0.25 Q 0.289 -0.081 0.226 0.055 Q 0.17400000000000002 0.166 0.094 0.233 Q 0.073 0.25 0.067 0.25 Q 0.057 0.25 0.057 0.24 Q 0.057 0.23500000000000001 0.07 0.223 Q 0.231 0.059000000000000004 0.231 -0.25 Q 0.231 -0.555 0.081 -0.712 L 0.076 -0.717 Q 0.057 -0.735 0.057 -0.74 Q 0.057 -0.75 0.067 -0.75 Q 0.079 -0.75 0.12 -0.709 Q 0.182 -0.647 0.223 -0.562 Q 0.289 -0.426 0.289 -0.25 Z"/></g><g transform="translate(4.614492063492063,9.083650857142857)"><path fill="rgb(0,0,0)" stroke="none" paint-order="stroke fill markers" d=" M 0.687 -0.327 L 0.09 -0.327 Q 0.058 -0.327 0.056 -0.34700000000000003 Q 0.056 -0.367 0.089 -0.367 L 0.6880000000000001 -0.367 Q 0.72 -0.367 0.721 -0.34700000000000003 Q 0.721 -0.327 0.687 -0.327 M 0.6880000000000001 -0.133 L 0.089 -0.133 Q 0.057 -0.133 0.056 -0.153 Q 0.056 -0.17300000000000001 0.09 -0.17300000000000001 L 0.687 -0.17300000000000001 Q 0.719 -0.17300000000000001 0.721 -0.153 Q 0.721 -0.133 0.6880000000000001 -0.133 Z"/></g><g transform="translate(5.704427464466413,8.407142857142857)"><path fill="rgb(0,0,0)" stroke="none" paint-order="stroke fill markers" d=" M 0.677 -0.162 L 0.677 -0.162 L 0.644 0 L 0.485 0 Q 0.463 0 0.46 -0.007 Q 0.459 -0.011 0.459 -0.021 Q 0.459 -0.09 0.506 -0.222 Q 0.555 -0.36 0.561 -0.425 Q 0.562 -0.44 0.562 -0.455 Q 0.562 -0.587 0.47000000000000003 -0.649 Q 0.42 -0.683 0.36 -0.683 Q 0.275 -0.683 0.216 -0.62 L 0.216 -0.619 Q 0.159 -0.557 0.159 -0.455 Q 0.159 -0.378 0.20800000000000002 -0.243 Q 0.262 -0.093 0.262 -0.021 Q 0.262 -0.004 0.255 -0.001 L 0.255 -0.001 L 0.254 -0.001 Q 0.25 0 0.23700000000000002 0 L 0.077 0 L 0.044 -0.162 L 0.069 -0.162 Q 0.079 -0.11 0.08700000000000001 -0.088 Q 0.092 -0.073 0.105 -0.069 Q 0.11800000000000001 -0.065 0.153 -0.065 L 0.233 -0.065 Q 0.22 -0.12 0.159 -0.212 L 0.153 -0.222 Q 0.15 -0.226 0.14400000000000002 -0.23500000000000001 Q 0.07200000000000001 -0.343 0.06 -0.41200000000000003 Q 0.056 -0.433 0.056 -0.454 Q 0.056 -0.558 0.145 -0.631 Q 0.233 -0.705 0.361 -0.705 Q 0.496 -0.705 0.586 -0.623 Q 0.665 -0.552 0.665 -0.454 Q 0.665 -0.373 0.595 -0.262 L 0.595 -0.262 L 0.594 -0.261 L 0.593 -0.26 L 0.577 -0.23500000000000001 Q 0.509 -0.135 0.493 -0.083 Q 0.49 -0.074 0.488 -0.065 L 0.5680000000000001 -0.065 Q 0.623 -0.065 0.631 -0.08 L 0.634 -0.089 Q 0.642 -0.111 0.652 -0.162 L 0.677 -0.162 Z"/></g><g transform="translate(6.426427464466412,8.407142857142857)"><path fill="rgb(0,0,0)" stroke="none" paint-order="stroke fill markers" d=" M 0.331 0.24 L 0.331 0.24 Q 0.331 0.25 0.321 0.25 Q 0.309 0.25 0.268 0.209 Q 0.20600000000000002 0.147 0.165 0.062 Q 0.099 -0.074 0.099 -0.25 Q 0.099 -0.419 0.162 -0.555 Q 0.214 -0.666 0.294 -0.733 Q 0.315 -0.75 0.321 -0.75 Q 0.331 -0.75 0.331 -0.74 Q 0.331 -0.735 0.318 -0.723 Q 0.157 -0.559 0.157 -0.25 Q 0.157 0.058 0.314 0.218 Q 0.331 0.23500000000000001 0.331 0.24 Z"/></g><g transform="translate(6.815427464466413,8.407142857142857)"><path fill="rgb(0,0,0)" stroke="none" paint-order="stroke fill markers" d=" M 0.20600000000000002 -0.4 L 0.132 -0.105 Q 0.126 -0.08 0.126 -0.057 Q 0.126 -0.011 0.157 -0.011 Q 0.223 -0.011 0.273 -0.108 L 0.28700000000000003 -0.139 Q 0.293 -0.152 0.302 -0.153 Q 0.314 -0.153 0.314 -0.14300000000000002 Q 0.314 -0.13 0.28800000000000003 -0.08600000000000001 Q 0.23 0.011 0.155 0.011 Q 0.097 0.011 0.073 -0.037 Q 0.063 -0.057 0.063 -0.081 Q 0.063 -0.1 0.124 -0.34 L 0.139 -0.4 L 0.051000000000000004 -0.4 Q 0.026000000000000002 -0.4 0.024 -0.40800000000000003 L 0.023 -0.40800000000000003 L 0.023 -0.41200000000000003 Q 0.023 -0.429 0.039 -0.431 L 0.053 -0.431 L 0.147 -0.431 L 0.186 -0.59 Q 0.195 -0.625 0.226 -0.626 Q 0.252 -0.626 0.255 -0.599 Q 0.255 -0.593 0.214 -0.431 L 0.302 -0.431 Q 0.328 -0.431 0.33 -0.42 Q 0.33 -0.402 0.314 -0.4 L 0.313 -0.4 L 0.3 -0.4 L 0.20600000000000002 -0.4 Z"/></g><g transform="translate(7.176427464466412,8.407142857142857)"><path fill="rgb(0,0,0)" stroke="none" paint-order="stroke fill markers" d=" M 0.289 -0.25 L 0.289 -0.25 Q 0.289 -0.081 0.226 0.055 Q 0.17400000000000002 0.166 0.094 0.233 Q 0.073 0.25 0.067 0.25 Q 0.057 0.25 0.057 0.24 Q 0.057 0.23500000000000001 0.07 0.223 Q 0.231 0.059000000000000004 0.231 -0.25 Q 0.231 -0.555 0.081 -0.712 L 0.076 -0.717 Q 0.057 -0.735 0.057 -0.74 Q 0.057 -0.75 0.067 -0.75 Q 0.079 -0.75 0.12 -0.709 Q 0.182 -0.647 0.223 -0.562 Q 0.289 -0.426 0.289 -0.25 Z"/></g><rect fill="rgb(0,0,0)" stroke="none" x="5.704427464466413" y="8.813651357142856" width="1.861" height="0.039999"/><g transform="translate(6.384927464466413,9.769601857142856)"><path fill="rgb(0,0,0)" stroke="none" paint-order="stroke fill markers" d=" M 0.449 -0.17400000000000002 L 0.449 -0.17400000000000002 L 0.421 0 L 0.05 0 Q 0.05 -0.025 0.056 -0.032 L 0.061 -0.037 L 0.253 -0.251 Q 0.358 -0.369 0.358 -0.47200000000000003 Q 0.358 -0.561 0.304 -0.607 L 0.303 -0.608 L 0.302 -0.608 Q 0.27 -0.635 0.224 -0.635 Q 0.152 -0.635 0.109 -0.5730000000000001 Q 0.097 -0.555 0.089 -0.533 Q 0.092 -0.534 0.10200000000000001 -0.534 Q 0.14200000000000002 -0.534 0.153 -0.498 L 0.153 -0.497 Q 0.155 -0.49 0.155 -0.482 Q 0.155 -0.442 0.117 -0.431 Q 0.109 -0.429 0.10300000000000001 -0.429 Q 0.066 -0.429 0.054 -0.46 Q 0.05 -0.47100000000000003 0.05 -0.485 Q 0.05 -0.562 0.109 -0.617 Q 0.162 -0.666 0.23700000000000002 -0.666 Q 0.34700000000000003 -0.666 0.40800000000000003 -0.592 Q 0.443 -0.549 0.448 -0.49 Q 0.449 -0.481 0.449 -0.47200000000000003 Q 0.449 -0.399 0.394 -0.333 Q 0.365 -0.299 0.304 -0.243 L 0.243 -0.189 L 0.233 -0.18 L 0.127 -0.077 L 0.307 -0.077 Q 0.395 -0.077 0.402 -0.085 Q 0.41200000000000003 -0.099 0.424 -0.17400000000000002 L 0.449 -0.17400000000000002 Z"/></g><g transform="translate(7.766251754329652,8.033650857142856)"><path fill="rgb(0,0,0)" stroke="none" paint-order="stroke fill markers" d=" M 0.06591796875 1.39990234375 Q 0.05615234375 1.39990234375 0.05615234375 1.38916015625 Q 0.05615234375 1.384765625 0.05908203125 1.3818359375 L 0.5869140625 0.76708984375 L 0.05908203125 0.0439453125 Q 0.05615234375 0.041015625 0.05615234375 0.0390625 L 0.05615234375 0.0087890625 Q 0.05615234375 0.00537109375 0.059326171875 0.002685546875 Q 0.0625 0 0.06591796875 0 L 1.26611328125 0 L 1.38720703125 0.28076171875 L 1.35791015625 0.28076171875 Q 1.3115234375 0.17431640625 1.20263671875 0.123046875 Q 1.09375 0.07177734375 0.975341796875 0.059814453125 Q 0.85693359375 0.0478515625 0.7001953125 0.0478515625 L 0.23779296875 0.0478515625 L 0.7099609375 0.69287109375 Q 0.7119140625 0.69677734375 0.7119140625 0.7001953125 Q 0.7119140625 0.703125 0.7099609375 0.70703125 L 0.19091796875 1.31103515625 L 0.7099609375 1.31103515625 Q 0.86376953125 1.31103515625 0.982666015625 1.299072265625 Q 1.1015625 1.287109375 1.209228515625 1.235595703125 Q 1.31689453125 1.18408203125 1.35791015625 1.078125 L 1.38720703125 1.078125 L 1.26611328125 1.39990234375 L 0.06591796875 1.39990234375 Z"/></g><g transform="translate(8.324101754329652,10.162317857142856) scale(0.7,0.7)"><path fill="rgb(0,0,0)" stroke="none" paint-order="stroke fill markers" d=" M 0.397 -0.625 Q 0.397 -0.597 0.369 -0.58 Q 0.356 -0.5720000000000001 0.343 -0.5720000000000001 Q 0.313 -0.5720000000000001 0.307 -0.599 L 0.307 -0.6 Q 0.306 -0.604 0.306 -0.608 Q 0.306 -0.639 0.337 -0.655 Q 0.34800000000000003 -0.661 0.359 -0.661 Q 0.389 -0.661 0.396 -0.634 Q 0.397 -0.629 0.397 -0.625 M 0.196 0.05 L 0.196 0.05 L 0.29 -0.323 Q 0.297 -0.353 0.297 -0.374 Q 0.297 -0.42 0.265 -0.42 Q 0.20400000000000001 -0.42 0.155 -0.332 Q 0.146 -0.316 0.139 -0.298 Q 0.127 -0.279 0.121 -0.278 Q 0.109 -0.278 0.109 -0.28800000000000003 Q 0.109 -0.301 0.135 -0.34500000000000003 Q 0.193 -0.442 0.268 -0.442 Q 0.324 -0.442 0.34900000000000003 -0.397 Q 0.36 -0.376 0.36 -0.35000000000000003 Q 0.36 -0.333 0.355 -0.313 L 0.263 0.053 Q 0.241 0.14 0.159 0.183 Q 0.117 0.20500000000000002 0.075 0.20500000000000002 Q 0.012 0.20500000000000002 -0.007 0.167 Q -0.013000000000000001 0.156 -0.013000000000000001 0.14300000000000002 Q -0.013000000000000001 0.105 0.021 0.09 Q 0.031 0.08600000000000001 0.041 0.08600000000000001 Q 0.07200000000000001 0.08600000000000001 0.078 0.113 Q 0.079 0.117 0.079 0.121 Q 0.079 0.151 0.051000000000000004 0.167 Q 0.043000000000000003 0.17200000000000001 0.034 0.17400000000000002 Q 0.052000000000000005 0.183 0.073 0.183 Q 0.132 0.183 0.17200000000000001 0.111 Q 0.188 0.083 0.196 0.05 Z"/></g><g transform="translate(9.21025175432965,9.083650857142857)"><path fill="rgb(0,0,0)" stroke="none" paint-order="stroke fill markers" d=" M 0.331 0.24 L 0.331 0.24 Q 0.331 0.25 0.321 0.25 Q 0.309 0.25 0.268 0.209 Q 0.20600000000000002 0.147 0.165 0.062 Q 0.099 -0.074 0.099 -0.25 Q 0.099 -0.419 0.162 -0.555 Q 0.214 -0.666 0.294 -0.733 Q 0.315 -0.75 0.321 -0.75 Q 0.331 -0.75 0.331 -0.74 Q 0.331 -0.735 0.318 -0.723 Q 0.157 -0.559 0.157 -0.25 Q 0.157 0.058 0.314 0.218 Q 0.331 0.23500000000000001 0.331 0.24 Z"/></g><g transform="translate(9.59925175432965,9.083650857142857)"><path fill="rgb(0,0,0)" stroke="none" paint-order="stroke fill markers" d=" M 0.187 -0.231 L 0.134 -0.231 Q 0.11800000000000001 -0.166 0.11800000000000001 -0.127 Q 0.11800000000000001 -0.048 0.164 -0.021 Q 0.181 -0.011 0.20500000000000002 -0.011 Q 0.295 -0.011 0.367 -0.07100000000000001 Q 0.388 -0.088 0.405 -0.11 Q 0.41200000000000003 -0.12 0.418 -0.12 Q 0.427 -0.12 0.43 -0.107 Q 0.43 -0.096 0.396 -0.064 Q 0.313 0.011 0.203 0.011 Q 0.113 0.011 0.07100000000000001 -0.066 Q 0.046 -0.111 0.046 -0.17 Q 0.046 -0.301 0.148 -0.382 Q 0.223 -0.442 0.308 -0.442 Q 0.38 -0.442 0.406 -0.392 Q 0.41500000000000004 -0.376 0.41500000000000004 -0.357 Q 0.41500000000000004 -0.305 0.37 -0.271 L 0.369 -0.27 Q 0.356 -0.261 0.34 -0.254 Q 0.28500000000000003 -0.231 0.187 -0.231 M 0.14 -0.253 L 0.181 -0.253 Q 0.382 -0.253 0.382 -0.357 Q 0.382 -0.397 0.343 -0.41400000000000003 L 0.343 -0.41400000000000003 Q 0.329 -0.419 0.308 -0.42 Q 0.252 -0.42 0.20500000000000002 -0.374 Q 0.16 -0.33 0.14 -0.253 Z"/></g><g transform="translate(10.06525175432965,8.670758857142857) scale(0.7,0.7)"><path fill="rgb(0,0,0)" stroke="none" paint-order="stroke fill markers" d=" M 0.28400000000000003 -0.625 Q 0.28400000000000003 -0.594 0.253 -0.578 Q 0.242 -0.5720000000000001 0.231 -0.5720000000000001 Q 0.201 -0.5720000000000001 0.194 -0.599 Q 0.193 -0.604 0.193 -0.608 Q 0.193 -0.636 0.221 -0.653 Q 0.234 -0.661 0.247 -0.661 Q 0.277 -0.661 0.28300000000000003 -0.634 L 0.28300000000000003 -0.633 Q 0.28400000000000003 -0.629 0.28400000000000003 -0.625 M 0.20800000000000002 -0.249 L 0.169 -0.14400000000000002 Q 0.14100000000000001 -0.063 0.14 -0.044 Q 0.14 -0.011 0.164 -0.011 Q 0.227 -0.011 0.262 -0.123 L 0.266 -0.135 Q 0.271 -0.151 0.276 -0.152 L 0.276 -0.153 L 0.281 -0.153 Q 0.293 -0.153 0.293 -0.14300000000000002 Q 0.293 -0.125 0.271 -0.079 Q 0.228 0.011 0.162 0.011 Q 0.109 0.011 0.088 -0.033 Q 0.08 -0.051000000000000004 0.08 -0.07100000000000001 Q 0.08 -0.091 0.10300000000000001 -0.151 Q 0.17300000000000001 -0.339 0.17200000000000001 -0.336 Q 0.183 -0.364 0.183 -0.388 Q 0.183 -0.42 0.158 -0.42 Q 0.10300000000000001 -0.42 0.068 -0.329 L 0.068 -0.328 Q 0.062 -0.313 0.057 -0.296 Q 0.046 -0.279 0.041 -0.278 Q 0.029 -0.278 0.029 -0.28800000000000003 Q 0.029 -0.306 0.051000000000000004 -0.35100000000000003 Q 0.094 -0.442 0.161 -0.442 Q 0.214 -0.442 0.23500000000000001 -0.397 Q 0.243 -0.38 0.243 -0.36 Q 0.243 -0.34 0.23 -0.307 Q 0.213 -0.261 0.20800000000000002 -0.249 Z"/></g><g transform="translate(10.30675175432965,8.670758857142857) scale(0.7,0.7)"><path fill="rgb(0,0,0)" stroke="none" paint-order="stroke fill markers" d=" M 0.437 -0.67 L 0.381 -0.443 Q 0.508 -0.434 0.555 -0.341 Q 0.5730000000000001 -0.304 0.5730000000000001 -0.262 Q 0.5730000000000001 -0.166 0.488 -0.084 Q 0.399 0.002 0.281 0.011 Q 0.274 0.012 0.267 0.012 L 0.229 0.161 Q 0.221 0.198 0.218 0.201 Q 0.214 0.20500000000000002 0.20800000000000002 0.20500000000000002 Q 0.196 0.20500000000000002 0.196 0.194 Q 0.196 0.192 0.218 0.106 L 0.24 0.016 Q 0.24 0.014 0.241 0.012 Q 0.126 0.005 0.075 -0.075 Q 0.049 -0.117 0.049 -0.169 Q 0.049 -0.267 0.136 -0.34900000000000003 Q 0.225 -0.434 0.343 -0.442 Q 0.34900000000000003 -0.443 0.355 -0.443 L 0.41300000000000003 -0.674 Q 0.422 -0.6930000000000001 0.428 -0.6940000000000001 Q 0.44 -0.6940000000000001 0.44 -0.684 L 0.437 -0.671 L 0.437 -0.67 M 0.246 -0.01 L 0.34900000000000003 -0.421 Q 0.233 -0.41100000000000003 0.164 -0.309 Q 0.114 -0.234 0.114 -0.148 Q 0.114 -0.05 0.198 -0.019 Q 0.221 -0.011 0.246 -0.01 M 0.375 -0.421 L 0.272 -0.01 Q 0.388 -0.019 0.458 -0.123 Q 0.508 -0.198 0.508 -0.28300000000000003 Q 0.508 -0.377 0.43 -0.40900000000000003 Q 0.405 -0.419 0.375 -0.421 Z"/></g><g transform="translate(10.723951754329649,8.670758857142857) scale(0.7,0.7)"><path fill="rgb(0,0,0)" stroke="none" paint-order="stroke fill markers" d=" M 0.331 0.24 L 0.331 0.24 Q 0.331 0.25 0.321 0.25 Q 0.309 0.25 0.268 0.209 Q 0.20600000000000002 0.147 0.165 0.062 Q 0.099 -0.074 0.099 -0.25 Q 0.099 -0.419 0.162 -0.555 Q 0.214 -0.666 0.294 -0.733 Q 0.315 -0.75 0.321 -0.75 Q 0.331 -0.75 0.331 -0.74 Q 0.331 -0.735 0.318 -0.723 Q 0.157 -0.559 0.157 -0.25 Q 0.157 0.058 0.314 0.218 Q 0.331 0.23500000000000001 0.331 0.24 Z"/></g><g transform="translate(10.996251754329649,8.670758857142857) scale(0.7,0.7)"><path fill="rgb(0,0,0)" stroke="none" paint-order="stroke fill markers" d=" M 0.20600000000000002 -0.4 L 0.132 -0.105 Q 0.126 -0.08 0.126 -0.057 Q 0.126 -0.011 0.157 -0.011 Q 0.223 -0.011 0.273 -0.108 L 0.28700000000000003 -0.139 Q 0.293 -0.152 0.302 -0.153 Q 0.314 -0.153 0.314 -0.14300000000000002 Q 0.314 -0.13 0.28800000000000003 -0.08600000000000001 Q 0.23 0.011 0.155 0.011 Q 0.097 0.011 0.073 -0.037 Q 0.063 -0.057 0.063 -0.081 Q 0.063 -0.1 0.124 -0.34 L 0.139 -0.4 L 0.051000000000000004 -0.4 Q 0.026000000000000002 -0.4 0.024 -0.40800000000000003 L 0.023 -0.40800000000000003 L 0.023 -0.41200000000000003 Q 0.023 -0.429 0.039 -0.431 L 0.053 -0.431 L 0.147 -0.431 L 0.186 -0.59 Q 0.195 -0.625 0.226 -0.626 Q 0.252 -0.626 0.255 -0.599 Q 0.255 -0.593 0.214 -0.431 L 0.302 -0.431 Q 0.328 -0.431 0.33 -0.42 Q 0.33 -0.402 0.314 -0.4 L 0.313 -0.4 L 0.3 -0.4 L 0.20600000000000002 -0.4 Z"/></g><g transform="translate(11.24895175432965,8.670758857142857) scale(0.7,0.7)"><path fill="rgb(0,0,0)" stroke="none" paint-order="stroke fill markers" d=" M 0.289 -0.25 L 0.289 -0.25 Q 0.289 -0.081 0.226 0.055 Q 0.17400000000000002 0.166 0.094 0.233 Q 0.073 0.25 0.067 0.25 Q 0.057 0.25 0.057 0.24 Q 0.057 0.23500000000000001 0.07 0.223 Q 0.231 0.059000000000000004 0.231 -0.25 Q 0.231 -0.555 0.081 -0.712 L 0.076 -0.717 Q 0.057 -0.735 0.057 -0.74 Q 0.057 -0.75 0.067 -0.75 Q 0.079 -0.75 0.12 -0.709 Q 0.182 -0.647 0.223 -0.562 Q 0.289 -0.426 0.289 -0.25 Z"/></g><g transform="translate(11.535484097328222,9.083650857142857)"><path fill="rgb(0,0,0)" stroke="none" paint-order="stroke fill markers" d=" M 0.159 -0.717 L 0.159 0.217 Q 0.159 0.249 0.139 0.25 Q 0.11900000000000001 0.25 0.11900000000000001 0.217 L 0.11900000000000001 -0.717 Q 0.11900000000000001 -0.749 0.139 -0.75 Q 0.159 -0.75 0.159 -0.717 Z"/></g><g transform="translate(11.813484097328223,9.083650857142857)"><path fill="rgb(0,0,0)" stroke="none" paint-order="stroke fill markers" d=" M 0.47100000000000003 -0.377 L 0.47100000000000003 -0.377 L 0.36 0.067 Q 0.34500000000000003 0.127 0.28200000000000003 0.168 Q 0.224 0.20500000000000002 0.148 0.20500000000000002 Q 0.025 0.20500000000000002 0.016 0.155 Q 0.015 0.15 0.015 0.14400000000000002 Q 0.015 0.10300000000000001 0.052000000000000005 0.089 Q 0.061 0.08600000000000001 0.069 0.08600000000000001 Q 0.1 0.08600000000000001 0.106 0.113 Q 0.107 0.117 0.107 0.121 Q 0.107 0.153 0.077 0.169 Q 0.07200000000000001 0.171 0.066 0.17300000000000001 Q 0.097 0.183 0.146 0.183 Q 0.244 0.183 0.29 0.075 L 0.323 -0.057 L 0.322 -0.058 Q 0.277 -0.008 0.221 -0.001 Q 0.213 0 0.20600000000000002 0 Q 0.136 0 0.098 -0.061 Q 0.073 -0.10200000000000001 0.073 -0.158 Q 0.073 -0.265 0.149 -0.354 Q 0.219 -0.436 0.3 -0.442 L 0.311 -0.442 Q 0.365 -0.442 0.398 -0.391 L 0.404 -0.379 Q 0.41300000000000003 -0.417 0.445 -0.422 Q 0.47100000000000003 -0.422 0.47400000000000003 -0.395 L 0.47100000000000003 -0.377 M 0.341 -0.128 L 0.341 -0.128 L 0.389 -0.319 Q 0.392 -0.331 0.392 -0.334 Q 0.392 -0.354 0.375 -0.382 L 0.375 -0.382 Q 0.363 -0.402 0.34500000000000003 -0.41200000000000003 Q 0.33 -0.42 0.312 -0.42 Q 0.26 -0.42 0.213 -0.353 Q 0.20600000000000002 -0.342 0.2 -0.331 Q 0.168 -0.271 0.149 -0.164 Q 0.14400000000000002 -0.133 0.14400000000000002 -0.114 Q 0.14400000000000002 -0.048 0.182 -0.028 Q 0.193 -0.022 0.209 -0.022 Q 0.248 -0.022 0.29 -0.058 Q 0.334 -0.096 0.341 -0.128 Z"/></g><g transform="translate(12.290484097328223,9.233650857142857) scale(0.7,0.7)"><path fill="rgb(0,0,0)" stroke="none" paint-order="stroke fill markers" d=" M 0.397 -0.625 Q 0.397 -0.597 0.369 -0.58 Q 0.356 -0.5720000000000001 0.343 -0.5720000000000001 Q 0.313 -0.5720000000000001 0.307 -0.599 L 0.307 -0.6 Q 0.306 -0.604 0.306 -0.608 Q 0.306 -0.639 0.337 -0.655 Q 0.34800000000000003 -0.661 0.359 -0.661 Q 0.389 -0.661 0.396 -0.634 Q 0.397 -0.629 0.397 -0.625 M 0.196 0.05 L 0.196 0.05 L 0.29 -0.323 Q 0.297 -0.353 0.297 -0.374 Q 0.297 -0.42 0.265 -0.42 Q 0.20400000000000001 -0.42 0.155 -0.332 Q 0.146 -0.316 0.139 -0.298 Q 0.127 -0.279 0.121 -0.278 Q 0.109 -0.278 0.109 -0.28800000000000003 Q 0.109 -0.301 0.135 -0.34500000000000003 Q 0.193 -0.442 0.268 -0.442 Q 0.324 -0.442 0.34900000000000003 -0.397 Q 0.36 -0.376 0.36 -0.35000000000000003 Q 0.36 -0.333 0.355 -0.313 L 0.263 0.053 Q 0.241 0.14 0.159 0.183 Q 0.117 0.20500000000000002 0.075 0.20500000000000002 Q 0.012 0.20500000000000002 -0.007 0.167 Q -0.013000000000000001 0.156 -0.013000000000000001 0.14300000000000002 Q -0.013000000000000001 0.105 0.021 0.09 Q 0.031 0.08600000000000001 0.041 0.08600000000000001 Q 0.07200000000000001 0.08600000000000001 0.078 0.113 Q 0.079 0.117 0.079 0.121 Q 0.079 0.151 0.051000000000000004 0.167 Q 0.043000000000000003 0.17200000000000001 0.034 0.17400000000000002 Q 0.052000000000000005 0.183 0.073 0.183 Q 0.132 0.183 0.17200000000000001 0.111 Q 0.188 0.083 0.196 0.05 Z"/></g><g transform="translate(12.618784097328223,9.083650857142857)"><path fill="rgb(0,0,0)" stroke="none" paint-order="stroke fill markers" d=" M 0.273 -0.232 L 0.097 0.23 Q 0.09 0.249 0.076 0.25 Q 0.06 0.25 0.057 0.23500000000000001 Q 0.056 0.232 0.056 0.23 Q 0.056 0.224 0.061 0.212 L 0.23700000000000002 -0.25 L 0.061 -0.712 Q 0.056 -0.724 0.056 -0.73 Q 0.056 -0.746 0.07100000000000001 -0.749 Q 0.074 -0.75 0.076 -0.75 Q 0.089 -0.75 0.095 -0.734 Q 0.095 -0.736 0.098 -0.728 L 0.273 -0.268 Q 0.278 -0.256 0.278 -0.25 Q 0.278 -0.244 0.273 -0.232 Z"/></g><g transform="translate(13.007784097328223,9.083650857142857)"><path fill="rgb(0,0,0)" stroke="none" paint-order="stroke fill markers" d=" M 0.327 -0.712 L 0.151 -0.25 L 0.327 0.212 Q 0.332 0.224 0.332 0.23 Q 0.332 0.246 0.317 0.249 Q 0.314 0.25 0.312 0.25 Q 0.299 0.25 0.293 0.234 Q 0.293 0.23600000000000002 0.29 0.228 L 0.115 -0.232 Q 0.11 -0.244 0.11 -0.25 Q 0.11 -0.256 0.115 -0.268 L 0.291 -0.73 Q 0.298 -0.749 0.312 -0.75 Q 0.328 -0.75 0.331 -0.735 Q 0.332 -0.732 0.332 -0.73 Q 0.332 -0.724 0.327 -0.712 Z"/></g><g transform="translate(13.396784097328222,9.083650857142857)"><path fill="rgb(0,0,0)" stroke="none" paint-order="stroke fill markers" d=" M 0.088 -0.059000000000000004 L 0.088 -0.059000000000000004 L 0.146 -0.29 Q 0.162 -0.354 0.162 -0.374 Q 0.162 -0.42 0.131 -0.42 Q 0.09 -0.42 0.064 -0.325 Q 0.061 -0.314 0.058 -0.301 Q 0.047 -0.279 0.041 -0.278 Q 0.029 -0.278 0.029 -0.28800000000000003 Q 0.029 -0.304 0.047 -0.355 Q 0.054 -0.373 0.06 -0.385 Q 0.084 -0.434 0.12 -0.441 Q 0.127 -0.442 0.134 -0.442 Q 0.19 -0.442 0.215 -0.394 Q 0.221 -0.383 0.224 -0.37 Q 0.225 -0.368 0.225 -0.365 Q 0.28300000000000003 -0.437 0.353 -0.442 Q 0.40900000000000003 -0.442 0.429 -0.403 Q 0.436 -0.391 0.436 -0.377 Q 0.436 -0.338 0.403 -0.323 Q 0.392 -0.318 0.381 -0.318 Q 0.35000000000000003 -0.318 0.34400000000000003 -0.34500000000000003 Q 0.343 -0.34900000000000003 0.343 -0.353 Q 0.343 -0.386 0.377 -0.402 L 0.378 -0.403 Q 0.386 -0.406 0.395 -0.40800000000000003 L 0.375 -0.417 Q 0.362 -0.419 0.353 -0.42 Q 0.311 -0.42 0.273 -0.387 Q 0.242 -0.359 0.22 -0.313 Q 0.218 -0.308 0.217 -0.305 L 0.185 -0.17500000000000002 L 0.145 -0.017 Q 0.136 0.009000000000000001 0.108 0.011 Q 0.083 0.006 0.079 -0.016 Q 0.079 -0.014 0.088 -0.059000000000000004 Z"/></g><g transform="translate(13.847784097328223,9.233650857142857) scale(0.7,0.7)"><path fill="rgb(0,0,0)" stroke="none" paint-order="stroke fill markers" d=" M 0.397 -0.625 Q 0.397 -0.597 0.369 -0.58 Q 0.356 -0.5720000000000001 0.343 -0.5720000000000001 Q 0.313 -0.5720000000000001 0.307 -0.599 L 0.307 -0.6 Q 0.306 -0.604 0.306 -0.608 Q 0.306 -0.639 0.337 -0.655 Q 0.34800000000000003 -0.661 0.359 -0.661 Q 0.389 -0.661 0.396 -0.634 Q 0.397 -0.629 0.397 -0.625 M 0.196 0.05 L 0.196 0.05 L 0.29 -0.323 Q 0.297 -0.353 0.297 -0.374 Q 0.297 -0.42 0.265 -0.42 Q 0.20400000000000001 -0.42 0.155 -0.332 Q 0.146 -0.316 0.139 -0.298 Q 0.127 -0.279 0.121 -0.278 Q 0.109 -0.278 0.109 -0.28800000000000003 Q 0.109 -0.301 0.135 -0.34500000000000003 Q 0.193 -0.442 0.268 -0.442 Q 0.324 -0.442 0.34900000000000003 -0.397 Q 0.36 -0.376 0.36 -0.35000000000000003 Q 0.36 -0.333 0.355 -0.313 L 0.263 0.053 Q 0.241 0.14 0.159 0.183 Q 0.117 0.20500000000000002 0.075 0.20500000000000002 Q 0.012 0.20500000000000002 -0.007 0.167 Q -0.013000000000000001 0.156 -0.013000000000000001 0.14300000000000002 Q -0.013000000000000001 0.105 0.021 0.09 Q 0.031 0.08600000000000001 0.041 0.08600000000000001 Q 0.07200000000000001 0.08600000000000001 0.078 0.113 Q 0.079 0.117 0.079 0.121 Q 0.079 0.151 0.051000000000000004 0.167 Q 0.043000000000000003 0.17200000000000001 0.034 0.17400000000000002 Q 0.052000000000000005 0.183 0.073 0.183 Q 0.132 0.183 0.17200000000000001 0.111 Q 0.188 0.083 0.196 0.05 Z"/></g><g transform="translate(14.176084097328221,9.083650857142857)"><path fill="rgb(0,0,0)" stroke="none" paint-order="stroke fill markers" d=" M 0.159 -0.717 L 0.159 0.217 Q 0.159 0.249 0.139 0.25 Q 0.11900000000000001 0.25 0.11900000000000001 0.217 L 0.11900000000000001 -0.717 Q 0.11900000000000001 -0.749 0.139 -0.75 Q 0.159 -0.75 0.159 -0.717 Z"/></g><g transform="translate(14.676306319550443,9.083650857142857)"><path fill="rgb(0,0,0)" stroke="none" paint-order="stroke fill markers" d=" M 0.40900000000000003 -0.23 L 0.40900000000000003 0.05 Q 0.40900000000000003 0.082 0.389 0.083 Q 0.369 0.083 0.369 0.05 L 0.369 -0.23 L 0.089 -0.23 Q 0.057 -0.23 0.056 -0.25 Q 0.056 -0.27 0.089 -0.27 L 0.369 -0.27 L 0.369 -0.55 Q 0.369 -0.582 0.389 -0.583 Q 0.40900000000000003 -0.583 0.40900000000000003 -0.55 L 0.40900000000000003 -0.27 L 0.6880000000000001 -0.27 Q 0.72 -0.27 0.721 -0.25 Q 0.721 -0.23 0.6880000000000001 -0.23 L 0.40900000000000003 -0.23 Z"/></g><g transform="translate(15.676528541772665,9.083650857142857)"><path fill="rgb(0,0,0)" stroke="none" paint-order="stroke fill markers" d=" M 0.187 -0.231 L 0.134 -0.231 Q 0.11800000000000001 -0.166 0.11800000000000001 -0.127 Q 0.11800000000000001 -0.048 0.164 -0.021 Q 0.181 -0.011 0.20500000000000002 -0.011 Q 0.295 -0.011 0.367 -0.07100000000000001 Q 0.388 -0.088 0.405 -0.11 Q 0.41200000000000003 -0.12 0.418 -0.12 Q 0.427 -0.12 0.43 -0.107 Q 0.43 -0.096 0.396 -0.064 Q 0.313 0.011 0.203 0.011 Q 0.113 0.011 0.07100000000000001 -0.066 Q 0.046 -0.111 0.046 -0.17 Q 0.046 -0.301 0.148 -0.382 Q 0.223 -0.442 0.308 -0.442 Q 0.38 -0.442 0.406 -0.392 Q 0.41500000000000004 -0.376 0.41500000000000004 -0.357 Q 0.41500000000000004 -0.305 0.37 -0.271 L 0.369 -0.27 Q 0.356 -0.261 0.34 -0.254 Q 0.28500000000000003 -0.231 0.187 -0.231 M 0.14 -0.253 L 0.181 -0.253 Q 0.382 -0.253 0.382 -0.357 Q 0.382 -0.397 0.343 -0.41400000000000003 L 0.343 -0.41400000000000003 Q 0.329 -0.419 0.308 -0.42 Q 0.252 -0.42 0.20500000000000002 -0.374 Q 0.16 -0.33 0.14 -0.253 Z"/></g><g transform="translate(16.142528541772666,8.670758857142857) scale(0.7,0.7)"><path fill="rgb(0,0,0)" stroke="none" paint-order="stroke fill markers" d=" M 0.661 -0.23 L 0.116 -0.23 Q 0.084 -0.23 0.083 -0.25 Q 0.083 -0.27 0.116 -0.27 L 0.661 -0.27 Q 0.6930000000000001 -0.27 0.6940000000000001 -0.25 Q 0.6940000000000001 -0.23 0.661 -0.23 Z"/></g><g transform="translate(16.687128541772665,8.670758857142857) scale(0.7,0.7)"><path fill="rgb(0,0,0)" stroke="none" paint-order="stroke fill markers" d=" M 0.28400000000000003 -0.625 Q 0.28400000000000003 -0.594 0.253 -0.578 Q 0.242 -0.5720000000000001 0.231 -0.5720000000000001 Q 0.201 -0.5720000000000001 0.194 -0.599 Q 0.193 -0.604 0.193 -0.608 Q 0.193 -0.636 0.221 -0.653 Q 0.234 -0.661 0.247 -0.661 Q 0.277 -0.661 0.28300000000000003 -0.634 L 0.28300000000000003 -0.633 Q 0.28400000000000003 -0.629 0.28400000000000003 -0.625 M 0.20800000000000002 -0.249 L 0.169 -0.14400000000000002 Q 0.14100000000000001 -0.063 0.14 -0.044 Q 0.14 -0.011 0.164 -0.011 Q 0.227 -0.011 0.262 -0.123 L 0.266 -0.135 Q 0.271 -0.151 0.276 -0.152 L 0.276 -0.153 L 0.281 -0.153 Q 0.293 -0.153 0.293 -0.14300000000000002 Q 0.293 -0.125 0.271 -0.079 Q 0.228 0.011 0.162 0.011 Q 0.109 0.011 0.088 -0.033 Q 0.08 -0.051000000000000004 0.08 -0.07100000000000001 Q 0.08 -0.091 0.10300000000000001 -0.151 Q 0.17300000000000001 -0.339 0.17200000000000001 -0.336 Q 0.183 -0.364 0.183 -0.388 Q 0.183 -0.42 0.158 -0.42 Q 0.10300000000000001 -0.42 0.068 -0.329 L 0.068 -0.328 Q 0.062 -0.313 0.057 -0.296 Q 0.046 -0.279 0.041 -0.278 Q 0.029 -0.278 0.029 -0.28800000000000003 Q 0.029 -0.306 0.051000000000000004 -0.35100000000000003 Q 0.094 -0.442 0.161 -0.442 Q 0.214 -0.442 0.23500000000000001 -0.397 Q 0.243 -0.38 0.243 -0.36 Q 0.243 -0.34 0.23 -0.307 Q 0.213 -0.261 0.20800000000000002 -0.249 Z"/></g><g transform="translate(16.928628541772664,8.670758857142857) scale(0.7,0.7)"><path fill="rgb(0,0,0)" stroke="none" paint-order="stroke fill markers" d=" M 0.437 -0.67 L 0.381 -0.443 Q 0.508 -0.434 0.555 -0.341 Q 0.5730000000000001 -0.304 0.5730000000000001 -0.262 Q 0.5730000000000001 -0.166 0.488 -0.084 Q 0.399 0.002 0.281 0.011 Q 0.274 0.012 0.267 0.012 L 0.229 0.161 Q 0.221 0.198 0.218 0.201 Q 0.214 0.20500000000000002 0.20800000000000002 0.20500000000000002 Q 0.196 0.20500000000000002 0.196 0.194 Q 0.196 0.192 0.218 0.106 L 0.24 0.016 Q 0.24 0.014 0.241 0.012 Q 0.126 0.005 0.075 -0.075 Q 0.049 -0.117 0.049 -0.169 Q 0.049 -0.267 0.136 -0.34900000000000003 Q 0.225 -0.434 0.343 -0.442 Q 0.34900000000000003 -0.443 0.355 -0.443 L 0.41300000000000003 -0.674 Q 0.422 -0.6930000000000001 0.428 -0.6940000000000001 Q 0.44 -0.6940000000000001 0.44 -0.684 L 0.437 -0.671 L 0.437 -0.67 M 0.246 -0.01 L 0.34900000000000003 -0.421 Q 0.233 -0.41100000000000003 0.164 -0.309 Q 0.114 -0.234 0.114 -0.148 Q 0.114 -0.05 0.198 -0.019 Q 0.221 -0.011 0.246 -0.01 M 0.375 -0.421 L 0.272 -0.01 Q 0.388 -0.019 0.458 -0.123 Q 0.508 -0.198 0.508 -0.28300000000000003 Q 0.508 -0.377 0.43 -0.40900000000000003 Q 0.405 -0.419 0.375 -0.421 Z"/></g><g transform="translate(17.345828541772665,8.670758857142857) scale(0.7,0.7)"><path fill="rgb(0,0,0)" stroke="none" paint-order="stroke fill markers" d=" M 0.331 0.24 L 0.331 0.24 Q 0.331 0.25 0.321 0.25 Q 0.309 0.25 0.268 0.209 Q 0.20600000000000002 0.147 0.165 0.062 Q 0.099 -0.074 0.099 -0.25 Q 0.099 -0.419 0.162 -0.555 Q 0.214 -0.666 0.294 -0.733 Q 0.315 -0.75 0.321 -0.75 Q 0.331 -0.75 0.331 -0.74 Q 0.331 -0.735 0.318 -0.723 Q 0.157 -0.559 0.157 -0.25 Q 0.157 0.058 0.314 0.218 Q 0.331 0.23500000000000001 0.331 0.24 Z"/></g><g transform="translate(17.618128541772666,8.670758857142857) scale(0.7,0.7)"><path fill="rgb(0,0,0)" stroke="none" paint-order="stroke fill markers" d=" M 0.20600000000000002 -0.4 L 0.132 -0.105 Q 0.126 -0.08 0.126 -0.057 Q 0.126 -0.011 0.157 -0.011 Q 0.223 -0.011 0.273 -0.108 L 0.28700000000000003 -0.139 Q 0.293 -0.152 0.302 -0.153 Q 0.314 -0.153 0.314 -0.14300000000000002 Q 0.314 -0.13 0.28800000000000003 -0.08600000000000001 Q 0.23 0.011 0.155 0.011 Q 0.097 0.011 0.073 -0.037 Q 0.063 -0.057 0.063 -0.081 Q 0.063 -0.1 0.124 -0.34 L 0.139 -0.4 L 0.051000000000000004 -0.4 Q 0.026000000000000002 -0.4 0.024 -0.40800000000000003 L 0.023 -0.40800000000000003 L 0.023 -0.41200000000000003 Q 0.023 -0.429 0.039 -0.431 L 0.053 -0.431 L 0.147 -0.431 L 0.186 -0.59 Q 0.195 -0.625 0.226 -0.626 Q 0.252 -0.626 0.255 -0.599 Q 0.255 -0.593 0.214 -0.431 L 0.302 -0.431 Q 0.328 -0.431 0.33 -0.42 Q 0.33 -0.402 0.314 -0.4 L 0.313 -0.4 L 0.3 -0.4 L 0.20600000000000002 -0.4 Z"/></g><g transform="translate(17.870828541772667,8.670758857142857) scale(0.7,0.7)"><path fill="rgb(0,0,0)" stroke="none" paint-order="stroke fill markers" d=" M 0.289 -0.25 L 0.289 -0.25 Q 0.289 -0.081 0.226 0.055 Q 0.17400000000000002 0.166 0.094 0.233 Q 0.073 0.25 0.067 0.25 Q 0.057 0.25 0.057 0.24 Q 0.057 0.23500000000000001 0.07 0.223 Q 0.231 0.059000000000000004 0.231 -0.25 Q 0.231 -0.555 0.081 -0.712 L 0.076 -0.717 Q 0.057 -0.735 0.057 -0.74 Q 0.057 -0.75 0.067 -0.75 Q 0.079 -0.75 0.12 -0.709 Q 0.182 -0.647 0.223 -0.562 Q 0.289 -0.426 0.289 -0.25 Z"/></g><g transform="translate(18.157360884771236,9.083650857142857)"><path fill="rgb(0,0,0)" stroke="none" paint-order="stroke fill markers" d=" M 0.159 -0.717 L 0.159 0.217 Q 0.159 0.249 0.139 0.25 Q 0.11900000000000001 0.25 0.11900000000000001 0.217 L 0.11900000000000001 -0.717 Q 0.11900000000000001 -0.749 0.139 -0.75 Q 0.159 -0.75 0.159 -0.717 Z"/></g><g transform="translate(18.435360884771235,9.083650857142857)"><path fill="rgb(0,0,0)" stroke="none" paint-order="stroke fill markers" d=" M 0.088 -0.059000000000000004 L 0.088 -0.059000000000000004 L 0.146 -0.29 Q 0.162 -0.354 0.162 -0.374 Q 0.162 -0.42 0.131 -0.42 Q 0.09 -0.42 0.064 -0.325 Q 0.061 -0.314 0.058 -0.301 Q 0.047 -0.279 0.041 -0.278 Q 0.029 -0.278 0.029 -0.28800000000000003 Q 0.029 -0.304 0.047 -0.355 Q 0.054 -0.373 0.06 -0.385 Q 0.084 -0.434 0.12 -0.441 Q 0.127 -0.442 0.134 -0.442 Q 0.19 -0.442 0.215 -0.394 Q 0.221 -0.383 0.224 -0.37 Q 0.225 -0.368 0.225 -0.365 Q 0.28300000000000003 -0.437 0.353 -0.442 Q 0.40900000000000003 -0.442 0.429 -0.403 Q 0.436 -0.391 0.436 -0.377 Q 0.436 -0.338 0.403 -0.323 Q 0.392 -0.318 0.381 -0.318 Q 0.35000000000000003 -0.318 0.34400000000000003 -0.34500000000000003 Q 0.343 -0.34900000000000003 0.343 -0.353 Q 0.343 -0.386 0.377 -0.402 L 0.378 -0.403 Q 0.386 -0.406 0.395 -0.40800000000000003 L 0.375 -0.417 Q 0.362 -0.419 0.353 -0.42 Q 0.311 -0.42 0.273 -0.387 Q 0.242 -0.359 0.22 -0.313 Q 0.218 -0.308 0.217 -0.305 L 0.185 -0.17500000000000002 L 0.145 -0.017 Q 0.136 0.009000000000000001 0.108 0.011 Q 0.083 0.006 0.079 -0.016 Q 0.079 -0.014 0.088 -0.059000000000000004 Z"/></g><g transform="translate(18.886360884771236,9.233650857142857) scale(0.7,0.7)"><path fill="rgb(0,0,0)" stroke="none" paint-order="stroke fill markers" d=" M 0.397 -0.625 Q 0.397 -0.597 0.369 -0.58 Q 0.356 -0.5720000000000001 0.343 -0.5720000000000001 Q 0.313 -0.5720000000000001 0.307 -0.599 L 0.307 -0.6 Q 0.306 -0.604 0.306 -0.608 Q 0.306 -0.639 0.337 -0.655 Q 0.34800000000000003 -0.661 0.359 -0.661 Q 0.389 -0.661 0.396 -0.634 Q 0.397 -0.629 0.397 -0.625 M 0.196 0.05 L 0.196 0.05 L 0.29 -0.323 Q 0.297 -0.353 0.297 -0.374 Q 0.297 -0.42 0.265 -0.42 Q 0.20400000000000001 -0.42 0.155 -0.332 Q 0.146 -0.316 0.139 -0.298 Q 0.127 -0.279 0.121 -0.278 Q 0.109 -0.278 0.109 -0.28800000000000003 Q 0.109 -0.301 0.135 -0.34500000000000003 Q 0.193 -0.442 0.268 -0.442 Q 0.324 -0.442 0.34900000000000003 -0.397 Q 0.36 -0.376 0.36 -0.35000000000000003 Q 0.36 -0.333 0.355 -0.313 L 0.263 0.053 Q 0.241 0.14 0.159 0.183 Q 0.117 0.20500000000000002 0.075 0.20500000000000002 Q 0.012 0.20500000000000002 -0.007 0.167 Q -0.013000000000000001 0.156 -0.013000000000000001 0.14300000000000002 Q -0.013000000000000001 0.105 0.021 0.09 Q 0.031 0.08600000000000001 0.041 0.08600000000000001 Q 0.07200000000000001 0.08600000000000001 0.078 0.113 Q 0.079 0.117 0.079 0.121 Q 0.079 0.151 0.051000000000000004 0.167 Q 0.043000000000000003 0.17200000000000001 0.034 0.17400000000000002 Q 0.052000000000000005 0.183 0.073 0.183 Q 0.132 0.183 0.17200000000000001 0.111 Q 0.188 0.083 0.196 0.05 Z"/></g><g transform="translate(19.214660884771234,9.083650857142857)"><path fill="rgb(0,0,0)" stroke="none" paint-order="stroke fill markers" d=" M 0.273 -0.232 L 0.097 0.23 Q 0.09 0.249 0.076 0.25 Q 0.06 0.25 0.057 0.23500000000000001 Q 0.056 0.232 0.056 0.23 Q 0.056 0.224 0.061 0.212 L 0.23700000000000002 -0.25 L 0.061 -0.712 Q 0.056 -0.724 0.056 -0.73 Q 0.056 -0.746 0.07100000000000001 -0.749 Q 0.074 -0.75 0.076 -0.75 Q 0.089 -0.75 0.095 -0.734 Q 0.095 -0.736 0.098 -0.728 L 0.273 -0.268 Q 0.278 -0.256 0.278 -0.25 Q 0.278 -0.244 0.273 -0.232 Z"/></g><g transform="translate(19.603660884771234,9.083650857142857)"><path fill="rgb(0,0,0)" stroke="none" paint-order="stroke fill markers" d=" M 0.327 -0.712 L 0.151 -0.25 L 0.327 0.212 Q 0.332 0.224 0.332 0.23 Q 0.332 0.246 0.317 0.249 Q 0.314 0.25 0.312 0.25 Q 0.299 0.25 0.293 0.234 Q 0.293 0.23600000000000002 0.29 0.228 L 0.115 -0.232 Q 0.11 -0.244 0.11 -0.25 Q 0.11 -0.256 0.115 -0.268 L 0.291 -0.73 Q 0.298 -0.749 0.312 -0.75 Q 0.328 -0.75 0.331 -0.735 Q 0.332 -0.732 0.332 -0.73 Q 0.332 -0.724 0.327 -0.712 Z"/></g><g transform="translate(19.992660884771233,9.083650857142857)"><path fill="rgb(0,0,0)" stroke="none" paint-order="stroke fill markers" d=" M 0.47100000000000003 -0.377 L 0.47100000000000003 -0.377 L 0.36 0.067 Q 0.34500000000000003 0.127 0.28200000000000003 0.168 Q 0.224 0.20500000000000002 0.148 0.20500000000000002 Q 0.025 0.20500000000000002 0.016 0.155 Q 0.015 0.15 0.015 0.14400000000000002 Q 0.015 0.10300000000000001 0.052000000000000005 0.089 Q 0.061 0.08600000000000001 0.069 0.08600000000000001 Q 0.1 0.08600000000000001 0.106 0.113 Q 0.107 0.117 0.107 0.121 Q 0.107 0.153 0.077 0.169 Q 0.07200000000000001 0.171 0.066 0.17300000000000001 Q 0.097 0.183 0.146 0.183 Q 0.244 0.183 0.29 0.075 L 0.323 -0.057 L 0.322 -0.058 Q 0.277 -0.008 0.221 -0.001 Q 0.213 0 0.20600000000000002 0 Q 0.136 0 0.098 -0.061 Q 0.073 -0.10200000000000001 0.073 -0.158 Q 0.073 -0.265 0.149 -0.354 Q 0.219 -0.436 0.3 -0.442 L 0.311 -0.442 Q 0.365 -0.442 0.398 -0.391 L 0.404 -0.379 Q 0.41300000000000003 -0.417 0.445 -0.422 Q 0.47100000000000003 -0.422 0.47400000000000003 -0.395 L 0.47100000000000003 -0.377 M 0.341 -0.128 L 0.341 -0.128 L 0.389 -0.319 Q 0.392 -0.331 0.392 -0.334 Q 0.392 -0.354 0.375 -0.382 L 0.375 -0.382 Q 0.363 -0.402 0.34500000000000003 -0.41200000000000003 Q 0.33 -0.42 0.312 -0.42 Q 0.26 -0.42 0.213 -0.353 Q 0.20600000000000002 -0.342 0.2 -0.331 Q 0.168 -0.271 0.149 -0.164 Q 0.14400000000000002 -0.133 0.14400000000000002 -0.114 Q 0.14400000000000002 -0.048 0.182 -0.028 Q 0.193 -0.022 0.209 -0.022 Q 0.248 -0.022 0.29 -0.058 Q 0.334 -0.096 0.341 -0.128 Z"/></g><g transform="translate(20.469660884771233,9.233650857142857) scale(0.7,0.7)"><path fill="rgb(0,0,0)" stroke="none" paint-order="stroke fill markers" d=" M 0.397 -0.625 Q 0.397 -0.597 0.369 -0.58 Q 0.356 -0.5720000000000001 0.343 -0.5720000000000001 Q 0.313 -0.5720000000000001 0.307 -0.599 L 0.307 -0.6 Q 0.306 -0.604 0.306 -0.608 Q 0.306 -0.639 0.337 -0.655 Q 0.34800000000000003 -0.661 0.359 -0.661 Q 0.389 -0.661 0.396 -0.634 Q 0.397 -0.629 0.397 -0.625 M 0.196 0.05 L 0.196 0.05 L 0.29 -0.323 Q 0.297 -0.353 0.297 -0.374 Q 0.297 -0.42 0.265 -0.42 Q 0.20400000000000001 -0.42 0.155 -0.332 Q 0.146 -0.316 0.139 -0.298 Q 0.127 -0.279 0.121 -0.278 Q 0.109 -0.278 0.109 -0.28800000000000003 Q 0.109 -0.301 0.135 -0.34500000000000003 Q 0.193 -0.442 0.268 -0.442 Q 0.324 -0.442 0.34900000000000003 -0.397 Q 0.36 -0.376 0.36 -0.35000000000000003 Q 0.36 -0.333 0.355 -0.313 L 0.263 0.053 Q 0.241 0.14 0.159 0.183 Q 0.117 0.20500000000000002 0.075 0.20500000000000002 Q 0.012 0.20500000000000002 -0.007 0.167 Q -0.013000000000000001 0.156 -0.013000000000000001 0.14300000000000002 Q -0.013000000000000001 0.105 0.021 0.09 Q 0.031 0.08600000000000001 0.041 0.08600000000000001 Q 0.07200000000000001 0.08600000000000001 0.078 0.113 Q 0.079 0.117 0.079 0.121 Q 0.079 0.151 0.051000000000000004 0.167 Q 0.043000000000000003 0.17200000000000001 0.034 0.17400000000000002 Q 0.052000000000000005 0.183 0.073 0.183 Q 0.132 0.183 0.17200000000000001 0.111 Q 0.188 0.083 0.196 0.05 Z"/></g><g transform="translate(20.797960884771232,9.083650857142857)"><path fill="rgb(0,0,0)" stroke="none" paint-order="stroke fill markers" d=" M 0.159 -0.717 L 0.159 0.217 Q 0.159 0.249 0.139 0.25 Q 0.11900000000000001 0.25 0.11900000000000001 0.217 L 0.11900000000000001 -0.717 Q 0.11900000000000001 -0.749 0.139 -0.75 Q 0.159 -0.75 0.159 -0.717 Z"/></g><g transform="translate(21.07596088477123,9.083650857142857)"><path fill="rgb(0,0,0)" stroke="none" paint-order="stroke fill markers" d=" M 0.289 -0.25 L 0.289 -0.25 Q 0.289 -0.081 0.226 0.055 Q 0.17400000000000002 0.166 0.094 0.233 Q 0.073 0.25 0.067 0.25 Q 0.057 0.25 0.057 0.24 Q 0.057 0.23500000000000001 0.07 0.223 Q 0.231 0.059000000000000004 0.231 -0.25 Q 0.231 -0.555 0.081 -0.712 L 0.076 -0.717 Q 0.057 -0.735 0.057 -0.74 Q 0.057 -0.75 0.067 -0.75 Q 0.079 -0.75 0.12 -0.709 Q 0.182 -0.647 0.223 -0.562 Q 0.289 -0.426 0.289 -0.25 Z"/></g><g transform="translate(21.631627551437898,9.083650857142857)"><path fill="rgb(0,0,0)" stroke="none" paint-order="stroke fill markers" d=" M 0.661 -0.23 L 0.116 -0.23 Q 0.084 -0.23 0.083 -0.25 Q 0.083 -0.27 0.116 -0.27 L 0.661 -0.27 Q 0.6930000000000001 -0.27 0.6940000000000001 -0.25 Q 0.6940000000000001 -0.23 0.661 -0.23 Z"/></g><g transform="translate(22.631849773660118,8.033650857142856)"><path fill="rgb(0,0,0)" stroke="none" paint-order="stroke fill markers" d=" M 0.06591796875 1.39990234375 Q 0.05615234375 1.39990234375 0.05615234375 1.38916015625 Q 0.05615234375 1.384765625 0.05908203125 1.3818359375 L 0.5869140625 0.76708984375 L 0.05908203125 0.0439453125 Q 0.05615234375 0.041015625 0.05615234375 0.0390625 L 0.05615234375 0.0087890625 Q 0.05615234375 0.00537109375 0.059326171875 0.002685546875 Q 0.0625 0 0.06591796875 0 L 1.26611328125 0 L 1.38720703125 0.28076171875 L 1.35791015625 0.28076171875 Q 1.3115234375 0.17431640625 1.20263671875 0.123046875 Q 1.09375 0.07177734375 0.975341796875 0.059814453125 Q 0.85693359375 0.0478515625 0.7001953125 0.0478515625 L 0.23779296875 0.0478515625 L 0.7099609375 0.69287109375 Q 0.7119140625 0.69677734375 0.7119140625 0.7001953125 Q 0.7119140625 0.703125 0.7099609375 0.70703125 L 0.19091796875 1.31103515625 L 0.7099609375 1.31103515625 Q 0.86376953125 1.31103515625 0.982666015625 1.299072265625 Q 1.1015625 1.287109375 1.209228515625 1.235595703125 Q 1.31689453125 1.18408203125 1.35791015625 1.078125 L 1.38720703125 1.078125 L 1.26611328125 1.39990234375 L 0.06591796875 1.39990234375 Z"/></g><g transform="translate(23.189699773660116,10.162317857142856) scale(0.7,0.7)"><path fill="rgb(0,0,0)" stroke="none" paint-order="stroke fill markers" d=" M 0.397 -0.625 Q 0.397 -0.597 0.369 -0.58 Q 0.356 -0.5720000000000001 0.343 -0.5720000000000001 Q 0.313 -0.5720000000000001 0.307 -0.599 L 0.307 -0.6 Q 0.306 -0.604 0.306 -0.608 Q 0.306 -0.639 0.337 -0.655 Q 0.34800000000000003 -0.661 0.359 -0.661 Q 0.389 -0.661 0.396 -0.634 Q 0.397 -0.629 0.397 -0.625 M 0.196 0.05 L 0.196 0.05 L 0.29 -0.323 Q 0.297 -0.353 0.297 -0.374 Q 0.297 -0.42 0.265 -0.42 Q 0.20400000000000001 -0.42 0.155 -0.332 Q 0.146 -0.316 0.139 -0.298 Q 0.127 -0.279 0.121 -0.278 Q 0.109 -0.278 0.109 -0.28800000000000003 Q 0.109 -0.301 0.135 -0.34500000000000003 Q 0.193 -0.442 0.268 -0.442 Q 0.324 -0.442 0.34900000000000003 -0.397 Q 0.36 -0.376 0.36 -0.35000000000000003 Q 0.36 -0.333 0.355 -0.313 L 0.263 0.053 Q 0.241 0.14 0.159 0.183 Q 0.117 0.20500000000000002 0.075 0.20500000000000002 Q 0.012 0.20500000000000002 -0.007 0.167 Q -0.013000000000000001 0.156 -0.013000000000000001 0.14300000000000002 Q -0.013000000000000001 0.105 0.021 0.09 Q 0.031 0.08600000000000001 0.041 0.08600000000000001 Q 0.07200000000000001 0.08600000000000001 0.078 0.113 Q 0.079 0.117 0.079 0.121 Q 0.079 0.151 0.051000000000000004 0.167 Q 0.043000000000000003 0.17200000000000001 0.034 0.17400000000000002 Q 0.052000000000000005 0.183 0.073 0.183 Q 0.132 0.183 0.17200000000000001 0.111 Q 0.188 0.083 0.196 0.05 Z"/></g><g transform="translate(24.242516440326785,9.083650857142857)"><path fill="rgb(0,0,0)" stroke="none" paint-order="stroke fill markers" d=" M 0.442 -0.6980000000000001 L 0.78 -0.02 Q 0.785 -0.011 0.785 -0.008 Q 0.779 0 0.763 0 L 0.069 0 Q 0.048 0 0.047 -0.008 Q 0.047 -0.011 0.052000000000000005 -0.02 L 0.39 -0.6980000000000001 Q 0.398 -0.713 0.406 -0.715 Q 0.41000000000000003 -0.716 0.41600000000000004 -0.716 Q 0.432 -0.716 0.438 -0.705 Q 0.439 -0.7030000000000001 0.442 -0.6980000000000001 M 0.384 -0.616 L 0.114 -0.076 L 0.653 -0.076 L 0.384 -0.616 Z"/></g><g transform="translate(25.075516440326783,9.083650857142857)"><path fill="rgb(0,0,0)" stroke="none" paint-order="stroke fill markers" d=" M 0.331 0.24 L 0.331 0.24 Q 0.331 0.25 0.321 0.25 Q 0.309 0.25 0.268 0.209 Q 0.20600000000000002 0.147 0.165 0.062 Q 0.099 -0.074 0.099 -0.25 Q 0.099 -0.419 0.162 -0.555 Q 0.214 -0.666 0.294 -0.733 Q 0.315 -0.75 0.321 -0.75 Q 0.331 -0.75 0.331 -0.74 Q 0.331 -0.735 0.318 -0.723 Q 0.157 -0.559 0.157 -0.25 Q 0.157 0.058 0.314 0.218 Q 0.331 0.23500000000000001 0.331 0.24 Z"/></g><g transform="translate(25.464516440326783,9.083650857142857)"><path fill="rgb(0,0,0)" stroke="none" paint-order="stroke fill markers" d=" M 0.20600000000000002 -0.4 L 0.132 -0.105 Q 0.126 -0.08 0.126 -0.057 Q 0.126 -0.011 0.157 -0.011 Q 0.223 -0.011 0.273 -0.108 L 0.28700000000000003 -0.139 Q 0.293 -0.152 0.302 -0.153 Q 0.314 -0.153 0.314 -0.14300000000000002 Q 0.314 -0.13 0.28800000000000003 -0.08600000000000001 Q 0.23 0.011 0.155 0.011 Q 0.097 0.011 0.073 -0.037 Q 0.063 -0.057 0.063 -0.081 Q 0.063 -0.1 0.124 -0.34 L 0.139 -0.4 L 0.051000000000000004 -0.4 Q 0.026000000000000002 -0.4 0.024 -0.40800000000000003 L 0.023 -0.40800000000000003 L 0.023 -0.41200000000000003 Q 0.023 -0.429 0.039 -0.431 L 0.053 -0.431 L 0.147 -0.431 L 0.186 -0.59 Q 0.195 -0.625 0.226 -0.626 Q 0.252 -0.626 0.255 -0.599 Q 0.255 -0.593 0.214 -0.431 L 0.302 -0.431 Q 0.328 -0.431 0.33 -0.42 Q 0.33 -0.402 0.314 -0.4 L 0.313 -0.4 L 0.3 -0.4 L 0.20600000000000002 -0.4 Z"/></g><g transform="translate(25.825516440326783,9.083650857142857)"><path fill="rgb(0,0,0)" stroke="none" paint-order="stroke fill markers" d=" M 0.289 -0.25 L 0.289 -0.25 Q 0.289 -0.081 0.226 0.055 Q 0.17400000000000002 0.166 0.094 0.233 Q 0.073 0.25 0.067 0.25 Q 0.057 0.25 0.057 0.24 Q 0.057 0.23500000000000001 0.07 0.223 Q 0.231 0.059000000000000004 0.231 -0.25 Q 0.231 -0.555 0.081 -0.712 L 0.076 -0.717 Q 0.057 -0.735 0.057 -0.74 Q 0.057 -0.75 0.067 -0.75 Q 0.079 -0.75 0.12 -0.709 Q 0.182 -0.647 0.223 -0.562 Q 0.289 -0.426 0.289 -0.25 Z"/></g><g transform="translate(26.264516440326783,9.083650857142857)"><path fill="rgb(0,0,0)" stroke="none" paint-order="stroke fill markers" d=" M 0.25 -0.6940000000000001 L 0.383 -0.558 L 0.365 -0.54 L 0.25 -0.642 L 0.134 -0.54 L 0.116 -0.558 L 0.25 -0.6940000000000001 Z"/></g><g transform="translate(26.214516440326783,9.083650857142857)"><path fill="rgb(0,0,0)" stroke="none" paint-order="stroke fill markers" d=" M 0.088 -0.059000000000000004 L 0.088 -0.059000000000000004 L 0.146 -0.29 Q 0.162 -0.354 0.162 -0.374 Q 0.162 -0.42 0.131 -0.42 Q 0.09 -0.42 0.064 -0.325 Q 0.061 -0.314 0.058 -0.301 Q 0.047 -0.279 0.041 -0.278 Q 0.029 -0.278 0.029 -0.28800000000000003 Q 0.029 -0.304 0.049 -0.36 L 0.049 -0.361 Q 0.049 -0.362 0.05 -0.362 L 0.05 -0.363 L 0.05 -0.364 L 0.059000000000000004 -0.385 Q 0.081 -0.425 0.10400000000000001 -0.435 Q 0.11800000000000001 -0.442 0.134 -0.442 Q 0.19 -0.442 0.215 -0.395 Q 0.224 -0.377 0.226 -0.355 Q 0.29 -0.442 0.382 -0.442 Q 0.468 -0.442 0.491 -0.376 Q 0.497 -0.358 0.497 -0.335 Q 0.497 -0.28400000000000003 0.436 -0.115 Q 0.418 -0.07100000000000001 0.418 -0.044 Q 0.418 -0.011 0.442 -0.011 Q 0.508 -0.011 0.544 -0.135 Q 0.549 -0.151 0.554 -0.152 L 0.554 -0.153 L 0.559 -0.153 Q 0.5710000000000001 -0.153 0.5710000000000001 -0.14300000000000002 Q 0.5710000000000001 -0.126 0.55 -0.08 Q 0.507 0.011 0.44 0.011 Q 0.389 0.011 0.367 -0.032 Q 0.358 -0.05 0.358 -0.07100000000000001 Q 0.358 -0.091 0.368 -0.117 Q 0.433 -0.292 0.433 -0.35000000000000003 Q 0.433 -0.42 0.379 -0.42 Q 0.289 -0.42 0.228 -0.32 Q 0.221 -0.309 0.216 -0.298 L 0.203 -0.248 Q 0.198 -0.225 0.186 -0.181 L 0.164 -0.091 Q 0.147 -0.022 0.145 -0.017 Q 0.136 0.009000000000000001 0.108 0.011 Q 0.083 0.006 0.079 -0.016 Q 0.079 -0.014 0.088 -0.059000000000000004 Z"/></g><g transform="translate(26.814516440326784,9.233650857142857) scale(0.7,0.7)"><path fill="rgb(0,0,0)" stroke="none" paint-order="stroke fill markers" d=" M 0.397 -0.625 Q 0.397 -0.597 0.369 -0.58 Q 0.356 -0.5720000000000001 0.343 -0.5720000000000001 Q 0.313 -0.5720000000000001 0.307 -0.599 L 0.307 -0.6 Q 0.306 -0.604 0.306 -0.608 Q 0.306 -0.639 0.337 -0.655 Q 0.34800000000000003 -0.661 0.359 -0.661 Q 0.389 -0.661 0.396 -0.634 Q 0.397 -0.629 0.397 -0.625 M 0.196 0.05 L 0.196 0.05 L 0.29 -0.323 Q 0.297 -0.353 0.297 -0.374 Q 0.297 -0.42 0.265 -0.42 Q 0.20400000000000001 -0.42 0.155 -0.332 Q 0.146 -0.316 0.139 -0.298 Q 0.127 -0.279 0.121 -0.278 Q 0.109 -0.278 0.109 -0.28800000000000003 Q 0.109 -0.301 0.135 -0.34500000000000003 Q 0.193 -0.442 0.268 -0.442 Q 0.324 -0.442 0.34900000000000003 -0.397 Q 0.36 -0.376 0.36 -0.35000000000000003 Q 0.36 -0.333 0.355 -0.313 L 0.263 0.053 Q 0.241 0.14 0.159 0.183 Q 0.117 0.20500000000000002 0.075 0.20500000000000002 Q 0.012 0.20500000000000002 -0.007 0.167 Q -0.013000000000000001 0.156 -0.013000000000000001 0.14300000000000002 Q -0.013000000000000001 0.105 0.021 0.09 Q 0.031 0.08600000000000001 0.041 0.08600000000000001 Q 0.07200000000000001 0.08600000000000001 0.078 0.113 Q 0.079 0.117 0.079 0.121 Q 0.079 0.151 0.051000000000000004 0.167 Q 0.043000000000000003 0.17200000000000001 0.034 0.17400000000000002 Q 0.052000000000000005 0.183 0.073 0.183 Q 0.132 0.183 0.17200000000000001 0.111 Q 0.188 0.083 0.196 0.05 Z"/></g><g transform="translate(27.365038662549004,9.083650857142857)"><path fill="rgb(0,0,0)" stroke="none" paint-order="stroke fill markers" d=" M 0.40900000000000003 -0.23 L 0.40900000000000003 0.05 Q 0.40900000000000003 0.082 0.389 0.083 Q 0.369 0.083 0.369 0.05 L 0.369 -0.23 L 0.089 -0.23 Q 0.057 -0.23 0.056 -0.25 Q 0.056 -0.27 0.089 -0.27 L 0.369 -0.27 L 0.369 -0.55 Q 0.369 -0.582 0.389 -0.583 Q 0.40900000000000003 -0.583 0.40900000000000003 -0.55 L 0.40900000000000003 -0.27 L 0.6880000000000001 -0.27 Q 0.72 -0.27 0.721 -0.25 Q 0.721 -0.23 0.6880000000000001 -0.23 L 0.40900000000000003 -0.23 Z"/></g><g transform="translate(28.365260884771224,8.033650857142856)"><path fill="rgb(0,0,0)" stroke="none" paint-order="stroke fill markers" d=" M 0.06591796875 1.39990234375 Q 0.05615234375 1.39990234375 0.05615234375 1.38916015625 Q 0.05615234375 1.384765625 0.05908203125 1.3818359375 L 0.5869140625 0.76708984375 L 0.05908203125 0.0439453125 Q 0.05615234375 0.041015625 0.05615234375 0.0390625 L 0.05615234375 0.0087890625 Q 0.05615234375 0.00537109375 0.059326171875 0.002685546875 Q 0.0625 0 0.06591796875 0 L 1.26611328125 0 L 1.38720703125 0.28076171875 L 1.35791015625 0.28076171875 Q 1.3115234375 0.17431640625 1.20263671875 0.123046875 Q 1.09375 0.07177734375 0.975341796875 0.059814453125 Q 0.85693359375 0.0478515625 0.7001953125 0.0478515625 L 0.23779296875 0.0478515625 L 0.7099609375 0.69287109375 Q 0.7119140625 0.69677734375 0.7119140625 0.7001953125 Q 0.7119140625 0.703125 0.7099609375 0.70703125 L 0.19091796875 1.31103515625 L 0.7099609375 1.31103515625 Q 0.86376953125 1.31103515625 0.982666015625 1.299072265625 Q 1.1015625 1.287109375 1.209228515625 1.235595703125 Q 1.31689453125 1.18408203125 1.35791015625 1.078125 L 1.38720703125 1.078125 L 1.26611328125 1.39990234375 L 0.06591796875 1.39990234375 Z"/></g><g transform="translate(28.457610884771224,10.186117857142856) scale(0.7,0.7)"><path fill="rgb(0,0,0)" stroke="none" paint-order="stroke fill markers" d=" M 0.397 -0.625 Q 0.397 -0.597 0.369 -0.58 Q 0.356 -0.5720000000000001 0.343 -0.5720000000000001 Q 0.313 -0.5720000000000001 0.307 -0.599 L 0.307 -0.6 Q 0.306 -0.604 0.306 -0.608 Q 0.306 -0.639 0.337 -0.655 Q 0.34800000000000003 -0.661 0.359 -0.661 Q 0.389 -0.661 0.396 -0.634 Q 0.397 -0.629 0.397 -0.625 M 0.196 0.05 L 0.196 0.05 L 0.29 -0.323 Q 0.297 -0.353 0.297 -0.374 Q 0.297 -0.42 0.265 -0.42 Q 0.20400000000000001 -0.42 0.155 -0.332 Q 0.146 -0.316 0.139 -0.298 Q 0.127 -0.279 0.121 -0.278 Q 0.109 -0.278 0.109 -0.28800000000000003 Q 0.109 -0.301 0.135 -0.34500000000000003 Q 0.193 -0.442 0.268 -0.442 Q 0.324 -0.442 0.34900000000000003 -0.397 Q 0.36 -0.376 0.36 -0.35000000000000003 Q 0.36 -0.333 0.355 -0.313 L 0.263 0.053 Q 0.241 0.14 0.159 0.183 Q 0.117 0.20500000000000002 0.075 0.20500000000000002 Q 0.012 0.20500000000000002 -0.007 0.167 Q -0.013000000000000001 0.156 -0.013000000000000001 0.14300000000000002 Q -0.013000000000000001 0.105 0.021 0.09 Q 0.031 0.08600000000000001 0.041 0.08600000000000001 Q 0.07200000000000001 0.08600000000000001 0.078 0.113 Q 0.079 0.117 0.079 0.121 Q 0.079 0.151 0.051000000000000004 0.167 Q 0.043000000000000003 0.17200000000000001 0.034 0.17400000000000002 Q 0.052000000000000005 0.183 0.073 0.183 Q 0.132 0.183 0.17200000000000001 0.111 Q 0.188 0.083 0.196 0.05 Z"/></g><g transform="translate(28.785910884771223,10.186117857142856) scale(0.7,0.7)"><path fill="rgb(0,0,0)" stroke="none" paint-order="stroke fill markers" d=" M 0.675 -0.498 L 0.15 -0.25 L 0.675 -0.002 Q 0.6940000000000001 0.008 0.6940000000000001 0.02 Q 0.6940000000000001 0.036000000000000004 0.679 0.039 Q 0.676 0.04 0.674 0.04 Q 0.669 0.04 0.656 0.033 L 0.10200000000000001 -0.228 Q 0.083 -0.23700000000000002 0.083 -0.25 Q 0.083 -0.263 0.10200000000000001 -0.272 L 0.656 -0.533 Q 0.669 -0.54 0.674 -0.54 Q 0.6900000000000001 -0.54 0.6930000000000001 -0.525 Q 0.6940000000000001 -0.522 0.6940000000000001 -0.52 Q 0.6940000000000001 -0.508 0.675 -0.498 Z"/></g><g transform="translate(29.330510884771222,10.186117857142856) scale(0.7,0.7)"><path fill="rgb(0,0,0)" stroke="none" paint-order="stroke fill markers" d=" M 0.28700000000000003 -0.683 L 0.183 -0.261 Q 0.226 -0.278 0.294 -0.354 Q 0.373 -0.442 0.44 -0.442 Q 0.488 -0.442 0.504 -0.402 Q 0.508 -0.391 0.508 -0.379 Q 0.508 -0.338 0.47400000000000003 -0.322 Q 0.463 -0.318 0.453 -0.318 Q 0.422 -0.318 0.41600000000000004 -0.34500000000000003 Q 0.41500000000000004 -0.34900000000000003 0.41500000000000004 -0.353 Q 0.41500000000000004 -0.381 0.44 -0.397 L 0.441 -0.398 L 0.441 -0.398 Q 0.454 -0.406 0.47200000000000003 -0.40700000000000003 L 0.468 -0.41100000000000003 Q 0.46 -0.417 0.447 -0.419 Q 0.445 -0.42 0.438 -0.42 Q 0.385 -0.42 0.309 -0.339 Q 0.305 -0.335 0.301 -0.33 L 0.295 -0.324 Q 0.243 -0.27 0.209 -0.25 Q 0.357 -0.231 0.357 -0.145 Q 0.357 -0.131 0.353 -0.114 Q 0.34500000000000003 -0.082 0.34500000000000003 -0.058 Q 0.34500000000000003 -0.011 0.377 -0.011 Q 0.423 -0.011 0.451 -0.094 Q 0.458 -0.111 0.464 -0.135 Q 0.47200000000000003 -0.152 0.47800000000000004 -0.153 Q 0.49 -0.153 0.49 -0.14300000000000002 Q 0.49 -0.127 0.47100000000000003 -0.078 Q 0.463 -0.058 0.454 -0.042 Q 0.422 0.011 0.375 0.011 Q 0.32 0.011 0.295 -0.037 Q 0.28300000000000003 -0.06 0.28300000000000003 -0.088 Q 0.28300000000000003 -0.099 0.28700000000000003 -0.123 Q 0.29 -0.133 0.29 -0.14400000000000002 Q 0.29 -0.20700000000000002 0.2 -0.225 Q 0.187 -0.228 0.17400000000000002 -0.229 Q 0.124 -0.021 0.11800000000000001 -0.01 Q 0.108 0.009000000000000001 0.084 0.011 Q 0.06 0.011 0.056 -0.01 Q 0.055 -0.014 0.055 -0.017 Q 0.055 -0.025 0.059000000000000004 -0.039 L 0.20400000000000001 -0.615 L 0.20700000000000002 -0.635 Q 0.20700000000000002 -0.646 0.193 -0.649 L 0.193 -0.649 Q 0.181 -0.652 0.157 -0.652 Q 0.135 -0.652 0.133 -0.664 Q 0.133 -0.681 0.152 -0.684 L 0.274 -0.6940000000000001 Q 0.28700000000000003 -0.6940000000000001 0.28700000000000003 -0.683 Z"/></g><g transform="translate(29.97592755143789,9.083650857142857)"><path fill="rgb(0,0,0)" stroke="none" paint-order="stroke fill markers" d=" M 0.628 -0.5690000000000001 L 0.268 0.004 Q 0.252 0.021 0.24 0.022 Q 0.226 0.022 0.222 0.01 Q 0.221 0.006 0.22 -0.001 L 0.14100000000000001 -0.618 Q 0.138 -0.641 0.127 -0.646 Q 0.116 -0.652 0.081 -0.652 Q 0.058 -0.652 0.056 -0.664 Q 0.056 -0.683 0.075 -0.683 L 0.128 -0.681 L 0.129 -0.681 L 0.182 -0.68 L 0.184 -0.68 L 0.307 -0.683 L 0.308 -0.683 Q 0.322 -0.683 0.322 -0.672 Q 0.314 -0.653 0.297 -0.652 Q 0.233 -0.652 0.228 -0.622 L 0.296 -0.093 L 0.603 -0.581 L 0.616 -0.609 Q 0.618 -0.615 0.618 -0.619 Q 0.618 -0.649 0.5720000000000001 -0.652 Q 0.556 -0.652 0.556 -0.664 Q 0.556 -0.683 0.5750000000000001 -0.683 L 0.673 -0.68 L 0.674 -0.68 L 0.754 -0.683 L 0.756 -0.683 Q 0.769 -0.683 0.769 -0.671 Q 0.769 -0.653 0.756 -0.652 Q 0.704 -0.649 0.674 -0.624 Q 0.663 -0.615 0.652 -0.602 Q 0.64 -0.588 0.628 -0.5690000000000001 Z"/></g><g transform="translate(30.55892755143789,9.233650857142857) scale(0.7,0.7)"><path fill="rgb(0,0,0)" stroke="none" paint-order="stroke fill markers" d=" M 0.397 -0.625 Q 0.397 -0.597 0.369 -0.58 Q 0.356 -0.5720000000000001 0.343 -0.5720000000000001 Q 0.313 -0.5720000000000001 0.307 -0.599 L 0.307 -0.6 Q 0.306 -0.604 0.306 -0.608 Q 0.306 -0.639 0.337 -0.655 Q 0.34800000000000003 -0.661 0.359 -0.661 Q 0.389 -0.661 0.396 -0.634 Q 0.397 -0.629 0.397 -0.625 M 0.196 0.05 L 0.196 0.05 L 0.29 -0.323 Q 0.297 -0.353 0.297 -0.374 Q 0.297 -0.42 0.265 -0.42 Q 0.20400000000000001 -0.42 0.155 -0.332 Q 0.146 -0.316 0.139 -0.298 Q 0.127 -0.279 0.121 -0.278 Q 0.109 -0.278 0.109 -0.28800000000000003 Q 0.109 -0.301 0.135 -0.34500000000000003 Q 0.193 -0.442 0.268 -0.442 Q 0.324 -0.442 0.34900000000000003 -0.397 Q 0.36 -0.376 0.36 -0.35000000000000003 Q 0.36 -0.333 0.355 -0.313 L 0.263 0.053 Q 0.241 0.14 0.159 0.183 Q 0.117 0.20500000000000002 0.075 0.20500000000000002 Q 0.012 0.20500000000000002 -0.007 0.167 Q -0.013000000000000001 0.156 -0.013000000000000001 0.14300000000000002 Q -0.013000000000000001 0.105 0.021 0.09 Q 0.031 0.08600000000000001 0.041 0.08600000000000001 Q 0.07200000000000001 0.08600000000000001 0.078 0.113 Q 0.079 0.117 0.079 0.121 Q 0.079 0.151 0.051000000000000004 0.167 Q 0.043000000000000003 0.17200000000000001 0.034 0.17400000000000002 Q 0.052000000000000005 0.183 0.073 0.183 Q 0.132 0.183 0.17200000000000001 0.111 Q 0.188 0.083 0.196 0.05 Z"/></g><g transform="translate(30.88722755143789,9.233650857142857) scale(0.7,0.7)"><path fill="rgb(0,0,0)" stroke="none" paint-order="stroke fill markers" d=" M 0.28700000000000003 -0.683 L 0.183 -0.261 Q 0.226 -0.278 0.294 -0.354 Q 0.373 -0.442 0.44 -0.442 Q 0.488 -0.442 0.504 -0.402 Q 0.508 -0.391 0.508 -0.379 Q 0.508 -0.338 0.47400000000000003 -0.322 Q 0.463 -0.318 0.453 -0.318 Q 0.422 -0.318 0.41600000000000004 -0.34500000000000003 Q 0.41500000000000004 -0.34900000000000003 0.41500000000000004 -0.353 Q 0.41500000000000004 -0.381 0.44 -0.397 L 0.441 -0.398 L 0.441 -0.398 Q 0.454 -0.406 0.47200000000000003 -0.40700000000000003 L 0.468 -0.41100000000000003 Q 0.46 -0.417 0.447 -0.419 Q 0.445 -0.42 0.438 -0.42 Q 0.385 -0.42 0.309 -0.339 Q 0.305 -0.335 0.301 -0.33 L 0.295 -0.324 Q 0.243 -0.27 0.209 -0.25 Q 0.357 -0.231 0.357 -0.145 Q 0.357 -0.131 0.353 -0.114 Q 0.34500000000000003 -0.082 0.34500000000000003 -0.058 Q 0.34500000000000003 -0.011 0.377 -0.011 Q 0.423 -0.011 0.451 -0.094 Q 0.458 -0.111 0.464 -0.135 Q 0.47200000000000003 -0.152 0.47800000000000004 -0.153 Q 0.49 -0.153 0.49 -0.14300000000000002 Q 0.49 -0.127 0.47100000000000003 -0.078 Q 0.463 -0.058 0.454 -0.042 Q 0.422 0.011 0.375 0.011 Q 0.32 0.011 0.295 -0.037 Q 0.28300000000000003 -0.06 0.28300000000000003 -0.088 Q 0.28300000000000003 -0.099 0.28700000000000003 -0.123 Q 0.29 -0.133 0.29 -0.14400000000000002 Q 0.29 -0.20700000000000002 0.2 -0.225 Q 0.187 -0.228 0.17400000000000002 -0.229 Q 0.124 -0.021 0.11800000000000001 -0.01 Q 0.108 0.009000000000000001 0.084 0.011 Q 0.06 0.011 0.056 -0.01 Q 0.055 -0.014 0.055 -0.017 Q 0.055 -0.025 0.059000000000000004 -0.039 L 0.20400000000000001 -0.615 L 0.20700000000000002 -0.635 Q 0.20700000000000002 -0.646 0.193 -0.649 L 0.193 -0.649 Q 0.181 -0.652 0.157 -0.652 Q 0.135 -0.652 0.133 -0.664 Q 0.133 -0.681 0.152 -0.684 L 0.274 -0.6940000000000001 Q 0.28700000000000003 -0.6940000000000001 0.28700000000000003 -0.683 Z"/></g><g transform="translate(31.32362755143789,9.083650857142857)"><path fill="rgb(0,0,0)" stroke="none" paint-order="stroke fill markers" d=" M 0.25 -0.6940000000000001 L 0.383 -0.558 L 0.365 -0.54 L 0.25 -0.642 L 0.134 -0.54 L 0.116 -0.558 L 0.25 -0.6940000000000001 Z"/></g><g transform="translate(31.27362755143789,9.083650857142857)"><path fill="rgb(0,0,0)" stroke="none" paint-order="stroke fill markers" d=" M 0.088 -0.059000000000000004 L 0.088 -0.059000000000000004 L 0.146 -0.29 Q 0.162 -0.354 0.162 -0.374 Q 0.162 -0.42 0.131 -0.42 Q 0.09 -0.42 0.064 -0.325 Q 0.061 -0.314 0.058 -0.301 Q 0.047 -0.279 0.041 -0.278 Q 0.029 -0.278 0.029 -0.28800000000000003 Q 0.029 -0.304 0.049 -0.36 L 0.049 -0.361 Q 0.049 -0.362 0.05 -0.362 L 0.05 -0.363 L 0.05 -0.364 L 0.059000000000000004 -0.385 Q 0.081 -0.425 0.10400000000000001 -0.435 Q 0.11800000000000001 -0.442 0.134 -0.442 Q 0.19 -0.442 0.215 -0.395 Q 0.224 -0.377 0.226 -0.355 Q 0.29 -0.442 0.382 -0.442 Q 0.468 -0.442 0.491 -0.376 Q 0.497 -0.358 0.497 -0.335 Q 0.497 -0.28400000000000003 0.436 -0.115 Q 0.418 -0.07100000000000001 0.418 -0.044 Q 0.418 -0.011 0.442 -0.011 Q 0.508 -0.011 0.544 -0.135 Q 0.549 -0.151 0.554 -0.152 L 0.554 -0.153 L 0.559 -0.153 Q 0.5710000000000001 -0.153 0.5710000000000001 -0.14300000000000002 Q 0.5710000000000001 -0.126 0.55 -0.08 Q 0.507 0.011 0.44 0.011 Q 0.389 0.011 0.367 -0.032 Q 0.358 -0.05 0.358 -0.07100000000000001 Q 0.358 -0.091 0.368 -0.117 Q 0.433 -0.292 0.433 -0.35000000000000003 Q 0.433 -0.42 0.379 -0.42 Q 0.289 -0.42 0.228 -0.32 Q 0.221 -0.309 0.216 -0.298 L 0.203 -0.248 Q 0.198 -0.225 0.186 -0.181 L 0.164 -0.091 Q 0.147 -0.022 0.145 -0.017 Q 0.136 0.009000000000000001 0.108 0.011 Q 0.083 0.006 0.079 -0.016 Q 0.079 -0.014 0.088 -0.059000000000000004 Z"/></g><g transform="translate(31.87362755143789,9.233650857142857) scale(0.7,0.7)"><path fill="rgb(0,0,0)" stroke="none" paint-order="stroke fill markers" d=" M 0.397 -0.625 Q 0.397 -0.597 0.369 -0.58 Q 0.356 -0.5720000000000001 0.343 -0.5720000000000001 Q 0.313 -0.5720000000000001 0.307 -0.599 L 0.307 -0.6 Q 0.306 -0.604 0.306 -0.608 Q 0.306 -0.639 0.337 -0.655 Q 0.34800000000000003 -0.661 0.359 -0.661 Q 0.389 -0.661 0.396 -0.634 Q 0.397 -0.629 0.397 -0.625 M 0.196 0.05 L 0.196 0.05 L 0.29 -0.323 Q 0.297 -0.353 0.297 -0.374 Q 0.297 -0.42 0.265 -0.42 Q 0.20400000000000001 -0.42 0.155 -0.332 Q 0.146 -0.316 0.139 -0.298 Q 0.127 -0.279 0.121 -0.278 Q 0.109 -0.278 0.109 -0.28800000000000003 Q 0.109 -0.301 0.135 -0.34500000000000003 Q 0.193 -0.442 0.268 -0.442 Q 0.324 -0.442 0.34900000000000003 -0.397 Q 0.36 -0.376 0.36 -0.35000000000000003 Q 0.36 -0.333 0.355 -0.313 L 0.263 0.053 Q 0.241 0.14 0.159 0.183 Q 0.117 0.20500000000000002 0.075 0.20500000000000002 Q 0.012 0.20500000000000002 -0.007 0.167 Q -0.013000000000000001 0.156 -0.013000000000000001 0.14300000000000002 Q -0.013000000000000001 0.105 0.021 0.09 Q 0.031 0.08600000000000001 0.041 0.08600000000000001 Q 0.07200000000000001 0.08600000000000001 0.078 0.113 Q 0.079 0.117 0.079 0.121 Q 0.079 0.151 0.051000000000000004 0.167 Q 0.043000000000000003 0.17200000000000001 0.034 0.17400000000000002 Q 0.052000000000000005 0.183 0.073 0.183 Q 0.132 0.183 0.17200000000000001 0.111 Q 0.188 0.083 0.196 0.05 Z"/></g><g transform="translate(32.25192755143789,9.083650857142857)"><path fill="rgb(0,0,0)" stroke="none" paint-order="stroke fill markers" d=" M 0.25 -0.6940000000000001 L 0.383 -0.558 L 0.365 -0.54 L 0.25 -0.642 L 0.134 -0.54 L 0.116 -0.558 L 0.25 -0.6940000000000001 Z"/></g><g transform="translate(32.20192755143789,9.083650857142857)"><path fill="rgb(0,0,0)" stroke="none" paint-order="stroke fill markers" d=" M 0.088 -0.059000000000000004 L 0.088 -0.059000000000000004 L 0.146 -0.29 Q 0.162 -0.354 0.162 -0.374 Q 0.162 -0.42 0.131 -0.42 Q 0.09 -0.42 0.064 -0.325 Q 0.061 -0.314 0.058 -0.301 Q 0.047 -0.279 0.041 -0.278 Q 0.029 -0.278 0.029 -0.28800000000000003 Q 0.029 -0.304 0.049 -0.36 L 0.049 -0.361 Q 0.049 -0.362 0.05 -0.362 L 0.05 -0.363 L 0.05 -0.364 L 0.059000000000000004 -0.385 Q 0.081 -0.425 0.10400000000000001 -0.435 Q 0.11800000000000001 -0.442 0.134 -0.442 Q 0.19 -0.442 0.215 -0.395 Q 0.224 -0.377 0.226 -0.355 Q 0.29 -0.442 0.382 -0.442 Q 0.468 -0.442 0.491 -0.376 Q 0.497 -0.358 0.497 -0.335 Q 0.497 -0.28400000000000003 0.436 -0.115 Q 0.418 -0.07100000000000001 0.418 -0.044 Q 0.418 -0.011 0.442 -0.011 Q 0.508 -0.011 0.544 -0.135 Q 0.549 -0.151 0.554 -0.152 L 0.554 -0.153 L 0.559 -0.153 Q 0.5710000000000001 -0.153 0.5710000000000001 -0.14300000000000002 Q 0.5710000000000001 -0.126 0.55 -0.08 Q 0.507 0.011 0.44 0.011 Q 0.389 0.011 0.367 -0.032 Q 0.358 -0.05 0.358 -0.07100000000000001 Q 0.358 -0.091 0.368 -0.117 Q 0.433 -0.292 0.433 -0.35000000000000003 Q 0.433 -0.42 0.379 -0.42 Q 0.289 -0.42 0.228 -0.32 Q 0.221 -0.309 0.216 -0.298 L 0.203 -0.248 Q 0.198 -0.225 0.186 -0.181 L 0.164 -0.091 Q 0.147 -0.022 0.145 -0.017 Q 0.136 0.009000000000000001 0.108 0.011 Q 0.083 0.006 0.079 -0.016 Q 0.079 -0.014 0.088 -0.059000000000000004 Z"/></g><g transform="translate(32.80192755143789,9.233650857142857) scale(0.7,0.7)"><path fill="rgb(0,0,0)" stroke="none" paint-order="stroke fill markers" d=" M 0.28700000000000003 -0.683 L 0.183 -0.261 Q 0.226 -0.278 0.294 -0.354 Q 0.373 -0.442 0.44 -0.442 Q 0.488 -0.442 0.504 -0.402 Q 0.508 -0.391 0.508 -0.379 Q 0.508 -0.338 0.47400000000000003 -0.322 Q 0.463 -0.318 0.453 -0.318 Q 0.422 -0.318 0.41600000000000004 -0.34500000000000003 Q 0.41500000000000004 -0.34900000000000003 0.41500000000000004 -0.353 Q 0.41500000000000004 -0.381 0.44 -0.397 L 0.441 -0.398 L 0.441 -0.398 Q 0.454 -0.406 0.47200000000000003 -0.40700000000000003 L 0.468 -0.41100000000000003 Q 0.46 -0.417 0.447 -0.419 Q 0.445 -0.42 0.438 -0.42 Q 0.385 -0.42 0.309 -0.339 Q 0.305 -0.335 0.301 -0.33 L 0.295 -0.324 Q 0.243 -0.27 0.209 -0.25 Q 0.357 -0.231 0.357 -0.145 Q 0.357 -0.131 0.353 -0.114 Q 0.34500000000000003 -0.082 0.34500000000000003 -0.058 Q 0.34500000000000003 -0.011 0.377 -0.011 Q 0.423 -0.011 0.451 -0.094 Q 0.458 -0.111 0.464 -0.135 Q 0.47200000000000003 -0.152 0.47800000000000004 -0.153 Q 0.49 -0.153 0.49 -0.14300000000000002 Q 0.49 -0.127 0.47100000000000003 -0.078 Q 0.463 -0.058 0.454 -0.042 Q 0.422 0.011 0.375 0.011 Q 0.32 0.011 0.295 -0.037 Q 0.28300000000000003 -0.06 0.28300000000000003 -0.088 Q 0.28300000000000003 -0.099 0.28700000000000003 -0.123 Q 0.29 -0.133 0.29 -0.14400000000000002 Q 0.29 -0.20700000000000002 0.2 -0.225 Q 0.187 -0.228 0.17400000000000002 -0.229 Q 0.124 -0.021 0.11800000000000001 -0.01 Q 0.108 0.009000000000000001 0.084 0.011 Q 0.06 0.011 0.056 -0.01 Q 0.055 -0.014 0.055 -0.017 Q 0.055 -0.025 0.059000000000000004 -0.039 L 0.20400000000000001 -0.615 L 0.20700000000000002 -0.635 Q 0.20700000000000002 -0.646 0.193 -0.649 L 0.193 -0.649 Q 0.181 -0.652 0.157 -0.652 Q 0.135 -0.652 0.133 -0.664 Q 0.133 -0.681 0.152 -0.684 L 0.274 -0.6940000000000001 Q 0.28700000000000003 -0.6940000000000001 0.28700000000000003 -0.683 Z"/></g></g><path fill="rgb(255,255,255)" stroke="none" paint-order="stroke fill markers" fill-rule="evenodd" d=" M 37.5 109 L 166.5 109 C 168.43299662440776 109 170 110.56700337559222 170 112.5 L 170 139.5 C 170 141.43299662440776 168.43299662440776 143 166.5 143 L 37.5 143 C 35.56700337559222 143 34 141.43299662440776 34 139.5 L 34 112.5 C 34 110.56700337559222 35.56700337559222 109 37.5 109 Z" fill-opacity="1"/><path fill="none" stroke="rgb(0,0,0)" paint-order="fill stroke markers" d=" M 37.5 109 L 166.5 109 C 168.43299662440776 109 170 110.56700337559222 170 112.5 L 170 139.5 C 170 141.43299662440776 168.43299662440776 143 166.5 143 L 37.5 143 C 35.56700337559222 143 34 141.43299662440776 34 139.5 L 34 112.5 C 34 110.56700337559222 35.56700337559222 109 37.5 109 Z" stroke-opacity="1" stroke-linecap="round" stroke-linejoin="round" stroke-miterlimit="10"/><text fill="rgb(0,0,0)" stroke="none" font-family="geogebra-sans-serif, sans-serif" font-size="24px" font-style="normal" font-weight="normal" text-decoration="normal" x="44" y="136" text-anchor="start" dominant-baseline="alphabetic" fill-opacity="1">Show SVG</text><path fill="rgb(255,255,255)" stroke="none" paint-order="stroke fill markers" fill-rule="evenodd" d=" M 204.5 106 L 380.5 106 C 382.4329966244078 106 384 107.56700337559222 384 109.5 L 384 136.5 C 384 138.43299662440776 382.4329966244078 140 380.5 140 L 204.5 140 C 202.56700337559224 140 201 138.43299662440776 201 136.5 L 201 109.5 C 201 107.56700337559222 202.56700337559224 106 204.5 106 Z" fill-opacity="1"/><path fill="none" stroke="rgb(0,0,0)" paint-order="fill stroke markers" d=" M 204.5 106 L 380.5 106 C 382.4329966244078 106 384 107.56700337559222 384 109.5 L 384 136.5 C 384 138.43299662440776 382.4329966244078 140 380.5 140 L 204.5 140 C 202.56700337559224 140 201 138.43299662440776 201 136.5 L 201 109.5 C 201 107.56700337559222 202.56700337559224 106 204.5 106 Z" stroke-opacity="1" stroke-linecap="round" stroke-linejoin="round" stroke-miterlimit="10"/><text fill="rgb(0,0,0)" stroke="none" font-family="geogebra-sans-serif, sans-serif" font-size="24px" font-style="normal" font-weight="normal" text-decoration="normal" x="211" y="133" text-anchor="start" dominant-baseline="alphabetic" fill-opacity="1">Download SVG</text><path fill="rgb(255,255,255)" stroke="none" paint-order="stroke fill markers" fill-rule="evenodd" d=" M 212 30 L 722 30 C 724.2091389993232 30 726 31.790861000676827 726 34 L 726 75 C 726 77.20913899932317 724.2091389993232 79 722 79 L 212 79 C 209.7908610006768 79 208 77.20913899932317 208 75 L 208 34 C 208 31.790861000676827 209.7908610006768 30 212 30 Z" fill-opacity="1"/><path fill="none" stroke="rgb(0,0,0)" paint-order="fill stroke markers" d=" M 212 30 L 722 30 C 724.2091389993232 30 726 31.790861000676827 726 34 L 726 75 C 726 77.20913899932317 724.2091389993232 79 722 79 L 212 79 C 209.7908610006768 79 208 77.20913899932317 208 75 L 208 34 C 208 31.790861000676827 209.7908610006768 30 212 30 Z" stroke-opacity="1" stroke-linecap="round" stroke-linejoin="round" stroke-miterlimit="10"/><text fill="rgb(0,0,0)" stroke="none" font-family="geogebra-sans-serif, sans-serif" font-size="32px" font-style="normal" font-weight="normal" text-decoration="normal" x="210" y="66" text-anchor="start" dominant-baseline="alphabetic" fill-opacity="1">H(t) = \frac{\Omega(t)}{2} \sum</text><text fill="rgb(0,0,0)" stroke="none" font-family="geogebra-sans-serif, sans-serif" font-size="28px" font-style="normal" font-weight="normal" text-decoration="normal" x="645" y="80" text-anchor="start" dominant-baseline="alphabetic" fill-opacity="1">j</text><text fill="rgb(0,0,0)" stroke="none" font-family="geogebra-sans-serif, sans-serif" font-size="32px" font-style="normal" font-weight="normal" text-decoration="normal" x="651" y="66" text-anchor="start" dominant-baseline="alphabetic" fill-opacity="1"> (e^</text><text fill="rgb(0,0,0)" stroke="none" font-family="geogebra-sans-serif, sans-serif" font-size="32px" font-style="normal" font-weight="normal" text-decoration="normal" x="30" y="66" text-anchor="start" dominant-baseline="alphabetic" fill-opacity="1">Enter LaTeX</text></g></g></svg>